<svg width="672" height="797" viewBox="0 0 672 797" fill="none" xmlns="http://www.w3.org/2000/svg">
<path fill-rule="evenodd" clip-rule="evenodd" d="M262.84 667.705C195.923 628.326 108.993 605.826 88.6747 531.018C65.0701 444.112 90.0461 342.421 158.747 284.462C224.754 228.776 318.89 252.64 404.687 264.418C491.93 276.395 602.931 271.08 640.67 350.62C677.613 428.481 593.374 503.427 554.443 580.046C523.533 640.879 508.49 719.887 443.046 739.56C378.028 759.105 321.486 702.218 262.84 667.705Z" fill="#493D9E"/>
<g clip-path="url(#clip0_518_1469)">
<path d="M197.362 467.885C184.311 454.68 176.288 436.51 176.288 416.535C176.288 376.132 209.113 343.347 249.565 343.347C290.017 343.347 322.898 376.076 322.898 416.478L266.458 373.593L197.362 467.885Z" fill="#FB9C46"/>
<path fill-rule="evenodd" clip-rule="evenodd" d="M249.621 321.566C250.87 321.566 251.881 322.576 251.881 323.823V331.723C251.881 332.969 250.87 333.98 249.621 333.98C248.373 333.98 247.362 332.969 247.362 331.723V323.823C247.362 322.576 248.373 321.566 249.621 321.566Z" fill="white"/>
<path fill-rule="evenodd" clip-rule="evenodd" d="M249.621 306.894C250.87 306.894 251.881 307.905 251.881 309.151V317.39C251.881 318.637 250.87 319.647 249.621 319.647C248.373 319.647 247.362 318.637 247.362 317.39V309.151C247.362 307.905 248.373 306.894 249.621 306.894Z" fill="white"/>
<path fill-rule="evenodd" clip-rule="evenodd" d="M249.621 288.781C250.87 288.781 251.881 289.791 251.881 291.038V301.816C251.881 303.062 250.87 304.073 249.621 304.073C248.373 304.073 247.362 303.062 247.362 301.816V291.038C247.362 289.791 248.373 288.781 249.621 288.781Z" fill="white"/>
<path fill-rule="evenodd" clip-rule="evenodd" d="M233.057 323.014C234.285 322.79 235.462 323.603 235.686 324.829L237.099 332.56C237.323 333.786 236.509 334.961 235.281 335.185C234.053 335.409 232.876 334.596 232.652 333.37L231.24 325.639C231.016 324.413 231.83 323.237 233.057 323.014Z" fill="white"/>
<path fill-rule="evenodd" clip-rule="evenodd" d="M230.519 308.567C231.748 308.345 232.923 309.16 233.145 310.387L234.614 318.512C234.836 319.739 234.02 320.913 232.791 321.135C231.563 321.356 230.388 320.541 230.166 319.315L228.697 311.189C228.475 309.962 229.291 308.788 230.519 308.567Z" fill="white"/>
<path fill-rule="evenodd" clip-rule="evenodd" d="M227.355 290.736C228.583 290.514 229.759 291.329 229.981 292.555L231.902 303.164C232.124 304.391 231.308 305.565 230.08 305.787C228.852 306.008 227.676 305.194 227.454 303.967L225.533 293.359C225.311 292.132 226.127 290.958 227.355 290.736Z" fill="white"/>
<path fill-rule="evenodd" clip-rule="evenodd" d="M217.093 327.29C218.265 326.861 219.563 327.462 219.992 328.633L222.704 336.025C223.133 337.195 222.531 338.492 221.359 338.921C220.188 339.35 218.889 338.748 218.46 337.578L215.748 330.186C215.319 329.015 215.921 327.719 217.093 327.29Z" fill="white"/>
<path fill-rule="evenodd" clip-rule="evenodd" d="M212.067 313.521C213.239 313.093 214.537 313.696 214.965 314.867L217.79 322.598C218.217 323.769 217.614 325.065 216.441 325.492C215.269 325.92 213.972 325.317 213.544 324.146L210.719 316.415C210.291 315.244 210.895 313.948 212.067 313.521Z" fill="white"/>
<path fill-rule="evenodd" clip-rule="evenodd" d="M205.849 296.481C207.021 296.051 208.319 296.652 208.749 297.823L212.478 307.98C212.907 309.15 212.306 310.447 211.134 310.876C209.962 311.305 208.664 310.704 208.234 309.534L204.505 299.377C204.076 298.206 204.677 296.91 205.849 296.481Z" fill="white"/>
<path fill-rule="evenodd" clip-rule="evenodd" d="M202.049 334.283C203.129 333.659 204.512 334.028 205.137 335.107L209.092 341.935C209.717 343.014 209.347 344.394 208.267 345.019C207.187 345.643 205.804 345.274 205.179 344.195L201.225 337.367C200.6 336.288 200.969 334.907 202.049 334.283Z" fill="white"/>
<path fill-rule="evenodd" clip-rule="evenodd" d="M194.766 321.584C195.848 320.962 197.23 321.335 197.852 322.416L201.976 329.582C202.598 330.663 202.225 332.043 201.143 332.664C200.061 333.285 198.68 332.913 198.058 331.832L193.933 324.665C193.311 323.585 193.684 322.205 194.766 321.584Z" fill="white"/>
<path fill-rule="evenodd" clip-rule="evenodd" d="M185.665 305.9C186.746 305.276 188.128 305.644 188.753 306.724L194.177 316.091C194.802 317.17 194.432 318.551 193.352 319.175C192.271 319.799 190.889 319.43 190.264 318.351L184.84 308.984C184.216 307.904 184.585 306.524 185.665 305.9Z" fill="white"/>
<path fill-rule="evenodd" clip-rule="evenodd" d="M188.506 343.764C189.461 342.962 190.886 343.084 191.69 344.038L196.775 350.076C197.578 351.03 197.455 352.454 196.5 353.257C195.545 354.059 194.119 353.936 193.316 352.982L188.231 346.944C187.428 345.99 187.551 344.566 188.506 343.764Z" fill="white"/>
<path fill-rule="evenodd" clip-rule="evenodd" d="M179.073 332.533C180.029 331.732 181.454 331.856 182.256 332.811L187.567 339.131C188.369 340.086 188.245 341.51 187.289 342.311C186.333 343.112 184.907 342.988 184.105 342.033L178.794 335.713C177.992 334.758 178.116 333.335 179.073 332.533Z" fill="white"/>
<path fill-rule="evenodd" clip-rule="evenodd" d="M167.373 318.655C168.327 317.852 169.753 317.972 170.558 318.925L177.564 327.22C178.368 328.173 178.247 329.597 177.293 330.401C176.339 331.205 174.913 331.084 174.109 330.131L167.103 321.836C166.298 320.883 166.419 319.459 167.373 318.655Z" fill="white"/>
<path fill-rule="evenodd" clip-rule="evenodd" d="M176.811 355.504C177.609 354.545 179.034 354.414 179.993 355.212L186.038 360.234C186.998 361.031 187.129 362.454 186.331 363.412C185.533 364.371 184.108 364.501 183.148 363.704L177.103 358.682C176.143 357.885 176.012 356.462 176.811 355.504Z" fill="white"/>
<path fill-rule="evenodd" clip-rule="evenodd" d="M165.581 346.065C166.387 345.113 167.813 344.995 168.766 345.801L175.037 351.105C175.989 351.911 176.107 353.335 175.301 354.286C174.494 355.238 173.068 355.356 172.116 354.55L165.845 349.246C164.892 348.44 164.774 347.016 165.581 346.065Z" fill="white"/>
<path fill-rule="evenodd" clip-rule="evenodd" d="M151.617 334.394C152.418 333.438 153.843 333.312 154.8 334.112L163.106 341.052C164.063 341.852 164.189 343.276 163.389 344.232C162.588 345.188 161.162 345.314 160.205 344.514L151.9 337.574C150.943 336.774 150.816 335.35 151.617 334.394Z" fill="white"/>
<path fill-rule="evenodd" clip-rule="evenodd" d="M167.27 369.02C167.895 367.941 169.277 367.572 170.358 368.196L177.194 372.146C178.274 372.77 178.643 374.151 178.018 375.23C177.393 376.309 176.011 376.678 174.931 376.054L168.094 372.104C167.014 371.479 166.645 370.099 167.27 369.02Z" fill="white"/>
<path fill-rule="evenodd" clip-rule="evenodd" d="M154.555 361.689C155.177 360.609 156.558 360.236 157.64 360.857L164.816 364.977C165.898 365.598 166.271 366.978 165.649 368.058C165.027 369.139 163.645 369.512 162.563 368.89L155.388 364.771C154.306 364.15 153.933 362.77 154.555 361.689Z" fill="white"/>
<path fill-rule="evenodd" clip-rule="evenodd" d="M138.852 352.6C139.476 351.521 140.859 351.152 141.939 351.776L151.318 357.193C152.398 357.817 152.768 359.198 152.143 360.277C151.518 361.356 150.135 361.725 149.055 361.101L139.677 355.684C138.596 355.06 138.227 353.679 138.852 352.6Z" fill="white"/>
<path fill-rule="evenodd" clip-rule="evenodd" d="M160.261 384.065C160.68 382.89 161.972 382.277 163.148 382.696L170.606 385.348C171.781 385.766 172.395 387.057 171.976 388.231C171.558 389.406 170.265 390.019 169.089 389.6L161.632 386.948C160.456 386.53 159.842 385.239 160.261 384.065Z" fill="white"/>
<path fill-rule="evenodd" clip-rule="evenodd" d="M146.48 379.031C146.905 377.859 148.201 377.253 149.374 377.678L157.171 380.499C158.344 380.924 158.951 382.218 158.526 383.39C158.101 384.562 156.805 385.168 155.631 384.743L147.835 381.922C146.661 381.497 146.055 380.203 146.48 379.031Z" fill="white"/>
<path fill-rule="evenodd" clip-rule="evenodd" d="M129.417 372.826C129.841 371.654 131.136 371.046 132.31 371.47L142.48 375.138C143.653 375.561 144.261 376.855 143.838 378.027C143.414 379.2 142.118 379.807 140.944 379.384L130.775 375.716C129.601 375.292 128.993 373.999 129.417 372.826Z" fill="white"/>
<path fill-rule="evenodd" clip-rule="evenodd" d="M155.983 400.009C156.196 398.781 157.367 397.959 158.596 398.172L166.393 399.527C167.622 399.74 168.446 400.909 168.232 402.137C168.018 403.365 166.848 404.188 165.618 403.974L157.822 402.62C156.592 402.406 155.769 401.238 155.983 400.009Z" fill="white"/>
<path fill-rule="evenodd" clip-rule="evenodd" d="M141.576 397.468C141.791 396.24 142.962 395.419 144.191 395.633L152.271 397.044C153.5 397.259 154.322 398.428 154.107 399.656C153.893 400.884 152.722 401.706 151.492 401.491L143.413 400.08C142.184 399.866 141.361 398.696 141.576 397.468Z" fill="white"/>
<path fill-rule="evenodd" clip-rule="evenodd" d="M123.666 394.309C123.881 393.081 125.052 392.259 126.281 392.473L136.959 394.336C138.189 394.55 139.011 395.719 138.797 396.947C138.582 398.175 137.411 398.997 136.182 398.783L125.504 396.92C124.274 396.706 123.452 395.537 123.666 394.309Z" fill="white"/>
<path fill-rule="evenodd" clip-rule="evenodd" d="M154.537 416.478C154.537 415.232 155.548 414.221 156.797 414.221H164.706C165.954 414.221 166.966 415.232 166.966 416.478C166.966 417.725 165.954 418.735 164.706 418.735H156.797C155.548 418.735 154.537 417.725 154.537 416.478Z" fill="white"/>
<path fill-rule="evenodd" clip-rule="evenodd" d="M139.904 416.478C139.904 415.232 140.916 414.221 142.164 414.221H150.413C151.661 414.221 152.672 415.232 152.672 416.478C152.672 417.725 151.661 418.735 150.413 418.735H142.164C140.916 418.735 139.904 417.725 139.904 416.478Z" fill="white"/>
<path fill-rule="evenodd" clip-rule="evenodd" d="M121.712 416.478C121.712 415.232 122.724 414.221 123.972 414.221H134.819C136.067 414.221 137.079 415.232 137.079 416.478C137.079 417.725 136.067 418.735 134.819 418.735H123.972C122.724 418.735 121.712 417.725 121.712 416.478Z" fill="white"/>
<path fill-rule="evenodd" clip-rule="evenodd" d="M168.232 430.82C168.446 432.048 167.622 433.217 166.393 433.43L158.596 434.785C157.367 434.998 156.196 434.176 155.983 432.948C155.769 431.72 156.592 430.551 157.822 430.337L165.618 428.983C166.848 428.769 168.018 429.592 168.232 430.82Z" fill="white"/>
<path fill-rule="evenodd" clip-rule="evenodd" d="M154.107 433.301C154.322 434.529 153.5 435.698 152.271 435.913L144.191 437.324C142.962 437.538 141.791 436.717 141.576 435.489C141.361 434.261 142.184 433.091 143.413 432.877L151.492 431.466C152.722 431.251 153.893 432.073 154.107 433.301Z" fill="white"/>
<path fill-rule="evenodd" clip-rule="evenodd" d="M138.797 436.01C139.011 437.238 138.189 438.407 136.959 438.622L126.281 440.484C125.052 440.698 123.881 439.877 123.666 438.649C123.452 437.421 124.274 436.251 125.504 436.037L136.182 434.175C137.411 433.96 138.582 434.782 138.797 436.01Z" fill="white"/>
<path fill-rule="evenodd" clip-rule="evenodd" d="M171.971 444.711C172.398 445.883 171.793 447.178 170.62 447.604L163.162 450.312C161.989 450.738 160.693 450.134 160.266 448.963C159.84 447.791 160.445 446.496 161.618 446.07L169.075 443.361C170.248 442.935 171.545 443.54 171.971 444.711Z" fill="white"/>
<path fill-rule="evenodd" clip-rule="evenodd" d="M158.526 449.624C158.951 450.796 158.344 452.09 157.171 452.515L149.374 455.336C148.201 455.761 146.905 455.155 146.48 453.983C146.055 452.811 146.661 451.516 147.835 451.092L155.631 448.27C156.805 447.846 158.101 448.451 158.526 449.624Z" fill="white"/>
<path fill-rule="evenodd" clip-rule="evenodd" d="M143.834 454.919C144.263 456.089 143.662 457.386 142.49 457.815L132.32 461.54C131.149 461.969 129.85 461.368 129.421 460.197C128.991 459.027 129.593 457.73 130.765 457.301L140.934 453.577C142.106 453.148 143.404 453.749 143.834 454.919Z" fill="white"/>
<path fill-rule="evenodd" clip-rule="evenodd" d="M178.018 457.726C178.643 458.805 178.274 460.186 177.194 460.81L170.358 464.76C169.277 465.385 167.895 465.016 167.27 463.937C166.645 462.858 167.014 461.477 168.094 460.853L174.931 456.903C176.011 456.279 177.393 456.647 178.018 457.726Z" fill="white"/>
<path fill-rule="evenodd" clip-rule="evenodd" d="M165.649 464.898C166.271 465.979 165.898 467.359 164.816 467.98L157.64 472.099C156.558 472.721 155.177 472.348 154.555 471.267C153.933 470.187 154.306 468.807 155.388 468.186L162.563 464.066C163.645 463.445 165.027 463.818 165.649 464.898Z" fill="white"/>
<path fill-rule="evenodd" clip-rule="evenodd" d="M152.143 472.68C152.768 473.759 152.398 475.14 151.318 475.764L141.939 481.181C140.859 481.805 139.476 481.436 138.852 480.357C138.227 479.278 138.596 477.898 139.677 477.273L149.055 471.856C150.135 471.232 151.518 471.601 152.143 472.68Z" fill="white"/>
<path fill-rule="evenodd" clip-rule="evenodd" d="M338.925 384.065C339.344 385.239 338.73 386.53 337.555 386.948L330.097 389.6C328.921 390.019 327.629 389.406 327.21 388.231C326.791 387.057 327.405 385.766 328.581 385.348L336.038 382.696C337.214 382.277 338.507 382.89 338.925 384.065Z" fill="white"/>
<path fill-rule="evenodd" clip-rule="evenodd" d="M352.707 379.031C353.132 380.203 352.525 381.497 351.352 381.922L343.555 384.743C342.382 385.168 341.086 384.562 340.661 383.39C340.236 382.218 340.842 380.924 342.016 380.499L349.812 377.678C350.986 377.253 352.282 377.859 352.707 379.031Z" fill="white"/>
<path fill-rule="evenodd" clip-rule="evenodd" d="M331.917 369.02C332.542 370.099 332.172 371.479 331.092 372.104L324.256 376.054C323.176 376.678 321.793 376.309 321.168 375.23C320.543 374.151 320.912 372.77 321.993 372.146L328.829 368.196C329.909 367.572 331.292 367.941 331.917 369.02Z" fill="white"/>
<path fill-rule="evenodd" clip-rule="evenodd" d="M344.631 361.689C345.253 362.77 344.88 364.15 343.798 364.771L336.623 368.89C335.541 369.512 334.16 369.139 333.538 368.058C332.916 366.978 333.289 365.598 334.371 364.977L341.546 360.857C342.628 360.236 344.01 360.609 344.631 361.689Z" fill="white"/>
<path fill-rule="evenodd" clip-rule="evenodd" d="M360.335 352.6C360.96 353.679 360.59 355.06 359.51 355.684L350.131 361.101C349.051 361.725 347.669 361.356 347.044 360.277C346.419 359.198 346.788 357.817 347.869 357.193L357.247 351.776C358.328 351.152 359.71 351.521 360.335 352.6Z" fill="white"/>
<path fill-rule="evenodd" clip-rule="evenodd" d="M322.369 355.495C323.172 356.45 323.048 357.874 322.092 358.676L316.103 363.698C315.147 364.499 313.722 364.375 312.919 363.42C312.117 362.466 312.241 361.042 313.197 360.24L319.185 355.218C320.141 354.417 321.567 354.541 322.369 355.495Z" fill="white"/>
<path fill-rule="evenodd" clip-rule="evenodd" d="M333.606 346.065C334.413 347.016 334.294 348.44 333.342 349.246L327.071 354.55C326.118 355.356 324.692 355.238 323.886 354.286C323.079 353.335 323.197 351.911 324.15 351.105L330.421 345.801C331.373 344.995 332.799 345.113 333.606 346.065Z" fill="white"/>
<path fill-rule="evenodd" clip-rule="evenodd" d="M347.569 334.394C348.37 335.35 348.244 336.774 347.286 337.574L338.981 344.514C338.024 345.314 336.599 345.188 335.798 344.232C334.997 343.276 335.124 341.852 336.081 341.052L344.386 334.112C345.343 333.312 346.769 333.438 347.569 334.394Z" fill="white"/>
<path fill-rule="evenodd" clip-rule="evenodd" d="M310.681 343.764C311.636 344.566 311.759 345.99 310.955 346.944L305.871 352.982C305.067 353.936 303.642 354.059 302.687 353.257C301.731 352.454 301.608 351.03 302.412 350.076L307.497 344.038C308.3 343.084 309.726 342.962 310.681 343.764Z" fill="white"/>
<path fill-rule="evenodd" clip-rule="evenodd" d="M320.114 332.533C321.07 333.335 321.194 334.758 320.392 335.713L315.081 342.033C314.279 342.988 312.853 343.112 311.897 342.311C310.941 341.51 310.817 340.086 311.619 339.131L316.93 332.811C317.732 331.856 319.158 331.732 320.114 332.533Z" fill="white"/>
<path fill-rule="evenodd" clip-rule="evenodd" d="M331.806 318.65C332.763 319.449 332.89 320.873 332.089 321.829L325.14 330.124C324.339 331.08 322.914 331.207 321.957 330.407C320.999 329.607 320.873 328.183 321.674 327.227L328.623 318.932C329.424 317.976 330.849 317.85 331.806 318.65Z" fill="white"/>
<path fill-rule="evenodd" clip-rule="evenodd" d="M297.137 334.283C298.218 334.907 298.587 336.288 297.962 337.367L294.007 344.195C293.382 345.274 291.999 345.643 290.919 345.019C289.839 344.394 289.47 343.014 290.095 341.935L294.049 335.107C294.674 334.028 296.057 333.659 297.137 334.283Z" fill="white"/>
<path fill-rule="evenodd" clip-rule="evenodd" d="M304.42 321.584C305.502 322.205 305.875 323.585 305.253 324.665L301.129 331.832C300.507 332.913 299.125 333.285 298.043 332.664C296.961 332.043 296.588 330.663 297.21 329.582L301.334 322.416C301.956 321.335 303.338 320.962 304.42 321.584Z" fill="white"/>
<path fill-rule="evenodd" clip-rule="evenodd" d="M313.521 305.9C314.602 306.524 314.971 307.904 314.346 308.984L308.922 318.351C308.298 319.43 306.915 319.799 305.835 319.175C304.754 318.551 304.385 317.17 305.01 316.091L310.434 306.724C311.058 305.644 312.441 305.276 313.521 305.9Z" fill="white"/>
<path fill-rule="evenodd" clip-rule="evenodd" d="M282.094 327.29C283.266 327.719 283.868 329.015 283.438 330.186L280.726 337.578C280.297 338.748 278.999 339.35 277.827 338.921C276.655 338.492 276.053 337.195 276.483 336.025L279.194 328.633C279.624 327.462 280.922 326.861 282.094 327.29Z" fill="white"/>
<path fill-rule="evenodd" clip-rule="evenodd" d="M287.12 313.521C288.292 313.948 288.896 315.244 288.468 316.415L285.643 324.146C285.215 325.317 283.918 325.92 282.745 325.492C281.573 325.065 280.969 323.769 281.397 322.598L284.222 314.867C284.65 313.696 285.947 313.093 287.12 313.521Z" fill="white"/>
<path fill-rule="evenodd" clip-rule="evenodd" d="M293.337 296.481C294.509 296.91 295.111 298.206 294.681 299.377L290.952 309.534C290.523 310.704 289.224 311.305 288.053 310.876C286.881 310.447 286.279 309.15 286.709 307.98L290.438 297.823C290.867 296.652 292.166 296.051 293.337 296.481Z" fill="white"/>
<path fill-rule="evenodd" clip-rule="evenodd" d="M266.129 323.014C267.357 323.237 268.17 324.413 267.946 325.639L266.534 333.37C266.31 334.596 265.133 335.409 263.905 335.185C262.677 334.961 261.864 333.786 262.088 332.56L263.5 324.829C263.724 323.603 264.901 322.79 266.129 323.014Z" fill="white"/>
<path fill-rule="evenodd" clip-rule="evenodd" d="M268.667 308.567C269.895 308.788 270.711 309.962 270.49 311.189L269.021 319.315C268.799 320.541 267.623 321.356 266.395 321.135C265.167 320.913 264.351 319.739 264.573 318.512L266.042 310.387C266.263 309.16 267.439 308.345 268.667 308.567Z" fill="white"/>
<path fill-rule="evenodd" clip-rule="evenodd" d="M271.832 290.736C273.06 290.958 273.875 292.132 273.653 293.359L271.732 303.967C271.51 305.194 270.335 306.009 269.106 305.787C267.878 305.565 267.063 304.391 267.285 303.164L269.206 292.555C269.428 291.329 270.603 290.514 271.832 290.736Z" fill="white"/>
<path fill-rule="evenodd" clip-rule="evenodd" d="M104.141 620.016C104.141 618.769 105.153 617.759 106.401 617.759H185.158C186.406 617.759 187.418 618.769 187.418 620.016C187.418 621.263 186.406 622.273 185.158 622.273H106.401C105.153 622.273 104.141 621.263 104.141 620.016Z" fill="#555061"/>
<path fill-rule="evenodd" clip-rule="evenodd" d="M192.785 620.016C192.785 618.769 193.797 617.759 195.045 617.759H307.757C309.005 617.759 310.017 618.769 310.017 620.016C310.017 621.263 309.005 622.273 307.757 622.273H195.045C193.797 622.273 192.785 621.263 192.785 620.016Z" fill="#555061"/>
<path fill-rule="evenodd" clip-rule="evenodd" d="M499.226 620.016C499.226 618.769 500.238 617.759 501.486 617.759H511.712C512.96 617.759 513.972 618.769 513.972 620.016C513.972 621.263 512.96 622.273 511.712 622.273H501.486C500.238 622.273 499.226 621.263 499.226 620.016Z" fill="#555061"/>
<path fill-rule="evenodd" clip-rule="evenodd" d="M519.282 620.016C519.282 618.769 520.294 617.759 521.542 617.759H570.469C571.717 617.759 572.729 618.769 572.729 620.016C572.729 621.263 571.717 622.273 570.469 622.273H521.542C520.294 622.273 519.282 621.263 519.282 620.016Z" fill="#555061"/>
<path fill-rule="evenodd" clip-rule="evenodd" d="M576.684 620.016C576.684 618.769 577.695 617.759 578.943 617.759H582.616C583.864 617.759 584.876 618.769 584.876 620.016C584.876 621.263 583.864 622.273 582.616 622.273H578.943C577.695 622.273 576.684 621.263 576.684 620.016Z" fill="#555061"/>
<path fill-rule="evenodd" clip-rule="evenodd" d="M266.425 371.583C267.026 371.499 267.636 371.659 268.118 372.029L330.039 419.599C331.028 420.359 331.213 421.776 330.452 422.764C329.691 423.752 328.273 423.937 327.283 423.177L267.191 377.013L157.769 525.37C157.028 526.373 155.614 526.588 154.609 525.848C153.604 525.109 153.389 523.696 154.13 522.692L264.921 372.48C265.281 371.991 265.823 371.668 266.425 371.583Z" fill="white"/>
<path fill-rule="evenodd" clip-rule="evenodd" d="M379.285 350.186C379.921 350.123 380.555 350.332 381.028 350.761L515.378 472.647C516.302 473.485 516.371 474.912 515.532 475.835C514.692 476.758 513.263 476.826 512.339 475.988L379.843 355.785L302.176 461.098C301.435 462.101 300.021 462.316 299.016 461.576C298.011 460.837 297.796 459.424 298.536 458.42L377.689 351.093C378.068 350.579 378.648 350.249 379.285 350.186Z" fill="white"/>
<path fill-rule="evenodd" clip-rule="evenodd" d="M320.512 412.271C321.559 412.949 321.858 414.347 321.178 415.393L314.399 425.832C313.811 426.737 312.666 427.1 311.663 426.7L296.147 420.501L289.816 430.131C289.255 430.985 288.191 431.356 287.22 431.037L274.928 426.995L268.73 432.747C268.098 433.333 267.187 433.509 266.381 433.2L249.86 426.858L237.291 431.837C236.357 432.207 235.291 431.917 234.674 431.125L229.137 424.015C228.371 423.031 228.548 421.613 229.533 420.847C230.519 420.082 231.938 420.259 232.705 421.243L237.2 427.017L249.014 422.337C249.542 422.128 250.129 422.125 250.658 422.328L266.687 428.481L272.829 422.781C273.432 422.222 274.292 422.034 275.074 422.291L286.988 426.208L293.382 416.481C293.972 415.584 295.113 415.225 296.11 415.624L311.618 421.819L317.386 412.936C318.066 411.891 319.465 411.593 320.512 412.271Z" fill="white"/>
<path fill-rule="evenodd" clip-rule="evenodd" d="M405.264 392.416C405.759 391.686 406.634 391.31 407.505 391.455L429.313 395.066C430.544 395.27 431.377 396.432 431.173 397.662C430.969 398.892 429.805 399.723 428.574 399.519L408.195 396.145L400.589 407.361C399.905 408.37 398.544 408.654 397.512 408.005L385.635 400.526L369 409.493C367.902 410.084 366.533 409.676 365.939 408.581L360.487 398.523L344.987 402.088C343.771 402.368 342.558 401.61 342.278 400.395C341.998 399.18 342.757 397.969 343.973 397.689L361.148 393.739C362.138 393.511 363.159 393.971 363.643 394.864L368.839 404.449L384.65 395.927C385.368 395.54 386.238 395.57 386.928 396.004L398.073 403.021L405.264 392.416Z" fill="white"/>
<path fill-rule="evenodd" clip-rule="evenodd" d="M425.328 344.983C425.328 332.338 435.549 322.13 448.209 322.13C456.741 322.13 464.245 326.848 468.151 333.804C469.336 333.551 470.566 333.416 471.825 333.416C478.523 333.416 484.375 337.235 487.216 342.825C487.703 342.761 488.205 342.726 488.718 342.726C494.994 342.726 500.13 347.856 500.13 354.125C500.13 355.695 499.776 357.234 499.219 358.556C498.866 359.393 498.045 359.937 497.136 359.937H416.684C415.942 359.937 415.248 359.573 414.825 358.964C414.403 358.355 414.307 357.578 414.569 356.885C416.409 352.003 420.381 348.239 425.396 346.662C425.353 346.109 425.328 345.549 425.328 344.983ZM448.209 326.644C438.045 326.644 429.848 334.831 429.848 344.983C429.848 345.965 429.946 346.975 430.105 348.034C430.286 349.238 429.479 350.368 428.281 350.589C425.064 351.182 422.314 352.942 420.467 355.423H495.477C495.563 354.994 495.61 354.556 495.61 354.125C495.61 350.349 492.498 347.241 488.718 347.241C487.949 347.241 487.23 347.369 486.607 347.576C485.448 347.962 484.191 347.358 483.771 346.211C482 341.384 477.299 337.93 471.825 337.93C470.382 337.93 468.984 338.17 467.681 338.604C466.582 338.97 465.385 338.447 464.907 337.393C462.041 331.065 455.598 326.644 448.209 326.644Z" fill="white"/>
<path fill-rule="evenodd" clip-rule="evenodd" d="M510.299 384.088C510.299 374.265 518.26 366.313 528.096 366.313C537.31 366.313 544.878 373.291 545.799 382.249C546.034 382.234 546.273 382.226 546.514 382.226C553.121 382.226 558.548 387.573 558.548 394.246V394.528C558.548 395.774 557.536 396.785 556.288 396.785H504.932C503.684 396.785 502.672 395.774 502.672 394.528V394.302C502.672 389.596 505.957 385.701 510.308 384.686C510.302 384.486 510.299 384.287 510.299 384.088ZM528.096 370.828C520.757 370.828 514.819 376.758 514.819 384.088C514.819 384.898 514.87 385.587 515.001 386.241C515.134 386.905 514.962 387.592 514.533 388.115C514.104 388.638 513.462 388.941 512.785 388.941H512.559C510.328 388.941 508.396 390.312 507.591 392.271H553.766C552.895 389.075 549.963 386.741 546.514 386.741C545.752 386.741 545.019 386.867 544.307 387.089C543.621 387.303 542.873 387.179 542.294 386.753C541.715 386.328 541.373 385.653 541.373 384.935V384.088C541.373 376.758 535.436 370.828 528.096 370.828Z" fill="white"/>
<path d="M256.571 620.016C242.277 620.016 230.638 608.391 230.638 594.115C230.638 579.839 242.277 568.214 256.571 568.214C270.864 568.214 282.503 579.839 282.503 594.115C282.503 608.391 270.864 620.016 256.571 620.016Z" fill="#B8BBD2"/>
<path fill-rule="evenodd" clip-rule="evenodd" d="M256.571 570.472C243.525 570.472 232.898 581.085 232.898 594.115C232.898 607.145 243.525 617.759 256.571 617.759C269.616 617.759 280.243 607.145 280.243 594.115C280.243 581.085 269.616 570.472 256.571 570.472ZM228.378 594.115C228.378 578.592 241.029 565.957 256.571 565.957C272.112 565.957 284.763 578.592 284.763 594.115C284.763 609.638 272.112 622.273 256.571 622.273C241.029 622.273 228.378 609.638 228.378 594.115Z" fill="#555061"/>
<path d="M256.571 607.658C249.113 607.658 243.011 601.564 243.011 594.115C243.011 586.667 249.113 580.572 256.571 580.572C264.028 580.572 270.13 586.667 270.13 594.115C270.13 601.564 264.028 607.658 256.571 607.658Z" fill="#FB9C46"/>
<path fill-rule="evenodd" clip-rule="evenodd" d="M256.571 582.829C250.361 582.829 245.271 587.913 245.271 594.115C245.271 600.317 250.361 605.401 256.571 605.401C262.78 605.401 267.87 600.317 267.87 594.115C267.87 587.913 262.78 582.829 256.571 582.829ZM240.751 594.115C240.751 585.42 247.865 578.315 256.571 578.315C265.276 578.315 272.39 585.42 272.39 594.115C272.39 602.81 265.276 609.915 256.571 609.915C247.865 609.915 240.751 602.81 240.751 594.115Z" fill="#555061"/>
<path d="M256.571 598.573C254.085 598.573 252.107 596.541 252.107 594.115C252.107 591.632 254.141 589.657 256.571 589.657C259.057 589.657 261.034 591.689 261.034 594.115C261.034 596.541 259.057 598.573 256.571 598.573Z" fill="#FB9C46"/>
<path fill-rule="evenodd" clip-rule="evenodd" d="M256.571 591.914C255.371 591.914 254.367 592.897 254.367 594.115C254.367 595.314 255.351 596.316 256.571 596.316C257.79 596.316 258.774 595.314 258.774 594.115C258.774 592.917 257.79 591.914 256.571 591.914ZM249.847 594.115C249.847 590.367 252.912 587.4 256.571 587.4C260.323 587.4 263.294 590.461 263.294 594.115C263.294 597.769 260.323 600.83 256.571 600.83C252.818 600.83 249.847 597.769 249.847 594.115Z" fill="#555061"/>
<path d="M463.915 515.285L458.604 495.14C456.514 487.07 449.621 481.202 441.316 480.299C417.588 477.76 388.83 476.292 355.271 476.292C316.853 476.292 257.814 479.227 240.073 481.258C236.853 481.597 234.085 483.685 232.785 486.675L222.107 511.617C217.192 520.42 214.198 530.125 213.35 540.17L213.124 596.259L225.045 596.485C224.989 595.695 224.932 594.905 224.932 594.115C224.932 576.679 239.056 562.572 256.514 562.572C273.972 562.572 288.096 576.679 288.096 594.115C288.096 595.131 288.04 596.147 287.927 597.106L370.977 598.122C370.808 596.824 370.695 595.469 370.695 594.115C370.695 576.679 384.819 562.572 402.277 562.572C419.734 562.572 433.859 576.679 433.859 594.115C433.859 595.695 433.746 597.219 433.52 598.742L467.023 599.081V540.621C467.192 532.1 466.062 523.58 463.915 515.285Z" fill="#D8D8D8"/>
<g opacity="0.36">
<path opacity="0.36" d="M219.452 596.259L219.678 540.17C220.525 530.125 223.52 520.42 228.435 511.617L239.113 486.675C240.412 483.685 243.181 481.653 246.401 481.258C263.633 479.283 319.734 476.462 358.153 476.292C357.192 476.292 356.232 476.292 355.271 476.292C316.853 476.292 257.814 479.227 240.073 481.258C236.853 481.597 234.085 483.685 232.785 486.675L222.107 511.617C217.192 520.42 214.198 530.125 213.35 540.17L213.124 596.259L225.045 596.485C225.045 596.429 225.045 596.429 225.045 596.372L219.452 596.259Z" fill="#8174A0"/>
<path opacity="0.36" d="M439.961 598.742C440.186 597.219 440.299 595.695 440.299 594.115C440.299 576.679 426.175 562.572 408.718 562.572C407.644 562.572 406.627 562.628 405.554 562.741C421.542 564.321 433.972 577.751 433.972 594.115C433.972 595.695 433.859 597.219 433.633 598.742L467.136 599.081V599.024L439.961 598.742Z" fill="#8174A0"/>
<path opacity="0.36" d="M294.311 597.049C294.424 596.09 294.48 595.074 294.48 594.059C294.48 576.622 280.356 562.515 262.898 562.515C261.825 562.515 260.808 562.572 259.734 562.684C275.723 564.264 288.152 577.694 288.152 594.059C288.152 595.074 288.096 596.09 287.983 597.049L371.034 598.065V598.009L294.311 597.049Z" fill="#8174A0"/>
</g>
<path opacity="0.36" d="M294.424 591.971H369.904V584.466H292.955C293.746 586.892 294.198 589.375 294.424 591.971Z" fill="#8174A0"/>
<g opacity="0.25">
<path opacity="0.25" d="M465.045 514.72L459.734 494.575C457.644 486.506 450.751 480.638 442.446 479.735C418.717 477.195 389.96 475.728 356.401 475.728C317.983 475.728 258.943 478.663 241.203 480.694C238.435 481.033 235.949 482.613 234.537 484.983C234.537 484.983 234.537 484.023 234.593 484.023C252.333 481.992 311.373 480.017 349.791 480.017C383.407 480.017 412.107 481.484 435.836 484.023C444.141 484.926 450.977 490.795 453.124 498.864L458.435 519.009C460.638 527.304 461.712 535.825 461.712 544.345V598.46L468.378 598.517V540.057C468.322 531.536 467.192 523.015 465.045 514.72Z" fill="#8174A0"/>
</g>
<path fill-rule="evenodd" clip-rule="evenodd" d="M239.826 479.015C257.695 476.97 316.813 474.035 355.271 474.035C388.893 474.035 417.732 475.505 441.557 478.055L441.561 478.055C450.783 479.058 458.459 485.578 460.791 494.568C460.791 494.57 460.792 494.572 460.792 494.574L466.101 514.71L466.103 514.72C468.294 523.183 469.454 531.901 469.283 540.643V599.081C469.283 599.683 469.041 600.261 468.613 600.685C468.184 601.109 467.603 601.344 467 601.338L433.497 600.999C432.844 600.993 432.226 600.704 431.801 600.208C431.377 599.712 431.189 599.057 431.284 598.412C431.494 596.998 431.599 595.585 431.599 594.115C431.599 577.925 418.486 564.829 402.277 564.829C386.067 564.829 372.955 577.925 372.955 594.115C372.955 595.347 373.058 596.601 373.218 597.83C373.303 598.479 373.102 599.132 372.667 599.621C372.231 600.11 371.605 600.387 370.95 600.379L287.899 599.363C287.258 599.355 286.651 599.076 286.229 598.595C285.806 598.115 285.607 597.478 285.682 596.842C285.784 595.977 285.836 595.05 285.836 594.115C285.836 577.925 272.724 564.829 256.514 564.829C240.305 564.829 227.192 577.925 227.192 594.115C227.192 594.811 227.242 595.521 227.299 596.324C227.345 596.957 227.122 597.579 226.685 598.039C226.248 598.499 225.637 598.754 225.002 598.742L213.082 598.516C211.847 598.493 210.86 597.484 210.865 596.25L211.091 540.16C211.091 540.1 211.093 540.04 211.098 539.98C211.97 529.652 215.04 519.673 220.076 510.621L230.708 485.788L230.712 485.777C232.323 482.07 235.77 479.445 239.826 479.015ZM355.271 478.55C316.9 478.55 257.954 481.483 240.331 483.501L240.31 483.503C237.932 483.753 235.849 485.3 234.861 487.569C234.86 487.57 234.859 487.572 234.858 487.574L224.185 512.504C224.154 512.577 224.12 512.647 224.081 512.716C219.335 521.216 216.44 530.581 215.61 540.27L215.393 594.045L222.673 594.183C222.672 594.16 222.672 594.138 222.672 594.115C222.672 575.432 237.808 560.315 256.514 560.315C275.22 560.315 290.356 575.432 290.356 594.115C290.356 594.369 290.353 594.624 290.346 594.878L368.488 595.834C368.454 595.267 368.435 594.693 368.435 594.115C368.435 575.432 383.571 560.315 402.277 560.315C420.983 560.315 436.119 575.432 436.119 594.115C436.119 594.924 436.091 595.721 436.035 596.51L464.763 596.801V540.621C464.763 540.606 464.763 540.591 464.763 540.576C464.928 532.285 463.829 523.972 461.728 515.854C461.728 515.852 461.728 515.851 461.727 515.85L456.419 495.714L456.417 495.705C454.566 488.56 448.459 483.347 441.074 482.543C417.441 480.014 388.767 478.55 355.271 478.55Z" fill="#555061"/>
<path d="M402.39 620.016C388.096 620.016 376.458 608.391 376.458 594.115C376.458 579.839 388.096 568.214 402.39 568.214C416.684 568.214 428.322 579.839 428.322 594.115C428.322 608.391 416.684 620.016 402.39 620.016Z" fill="#B8BBD2"/>
<path fill-rule="evenodd" clip-rule="evenodd" d="M402.39 570.472C389.344 570.472 378.718 581.085 378.718 594.115C378.718 607.145 389.344 617.759 402.39 617.759C415.436 617.759 426.062 607.145 426.062 594.115C426.062 581.085 415.436 570.472 402.39 570.472ZM374.198 594.115C374.198 578.592 386.848 565.957 402.39 565.957C417.932 565.957 430.582 578.592 430.582 594.115C430.582 609.638 417.932 622.273 402.39 622.273C386.848 622.273 374.198 609.638 374.198 594.115Z" fill="#555061"/>
<path d="M402.39 607.658C394.932 607.658 388.831 601.564 388.831 594.115C388.831 586.667 394.932 580.572 402.39 580.572C409.848 580.572 415.949 586.667 415.949 594.115C415.949 601.564 409.848 607.658 402.39 607.658Z" fill="#FB9C46"/>
<path fill-rule="evenodd" clip-rule="evenodd" d="M402.39 582.829C396.18 582.829 391.09 587.913 391.09 594.115C391.09 600.317 396.18 605.401 402.39 605.401C408.599 605.401 413.689 600.317 413.689 594.115C413.689 587.913 408.599 582.829 402.39 582.829ZM386.571 594.115C386.571 585.42 393.684 578.315 402.39 578.315C411.095 578.315 418.209 585.42 418.209 594.115C418.209 602.81 411.095 609.915 402.39 609.915C393.684 609.915 386.571 602.81 386.571 594.115Z" fill="#555061"/>
<path d="M402.39 598.573C399.904 598.573 397.927 596.541 397.927 594.115C397.927 591.632 399.96 589.657 402.39 589.657C404.876 589.657 406.853 591.689 406.853 594.115C406.853 596.541 404.876 598.573 402.39 598.573Z" fill="#FB9C46"/>
<path fill-rule="evenodd" clip-rule="evenodd" d="M402.39 591.914C401.19 591.914 400.187 592.897 400.187 594.115C400.187 595.314 401.171 596.316 402.39 596.316C403.609 596.316 404.593 595.314 404.593 594.115C404.593 592.917 403.609 591.914 402.39 591.914ZM395.667 594.115C395.667 590.367 398.731 587.4 402.39 587.4C406.142 587.4 409.113 590.461 409.113 594.115C409.113 597.769 406.142 600.83 402.39 600.83C398.637 600.83 395.667 597.769 395.667 594.115Z" fill="#555061"/>
<path d="M213.124 601.282H206.966C204.424 601.282 202.39 599.25 202.39 596.711V578.485C202.39 575.945 204.424 573.914 206.966 573.914H213.124V601.282Z" fill="white"/>
<path fill-rule="evenodd" clip-rule="evenodd" d="M206.966 576.171C205.672 576.171 204.65 577.192 204.65 578.485V596.711C204.65 598.004 205.672 599.025 206.966 599.025H210.864V576.171H206.966ZM200.13 578.485C200.13 574.699 203.176 571.657 206.966 571.657H213.124C214.372 571.657 215.384 572.667 215.384 573.914V601.282C215.384 602.528 214.372 603.539 213.124 603.539H206.966C203.176 603.539 200.13 600.497 200.13 596.711V578.485Z" fill="#555061"/>
<path d="M214.028 566.578H211.768C210.073 566.578 208.718 565.224 208.718 563.531V549.537C208.718 547.844 210.073 546.49 211.768 546.49H214.028C215.723 546.49 217.079 547.844 217.079 549.537V563.531C217.079 565.224 215.723 566.578 214.028 566.578Z" fill="white"/>
<path fill-rule="evenodd" clip-rule="evenodd" d="M211.768 548.747C211.321 548.747 210.977 549.09 210.977 549.537V563.531C210.977 563.977 211.321 564.321 211.768 564.321H214.028C214.475 564.321 214.819 563.977 214.819 563.531V549.537C214.819 549.09 214.475 548.747 214.028 548.747H211.768ZM206.458 549.537C206.458 546.597 208.825 544.232 211.768 544.232H214.028C216.971 544.232 219.339 546.597 219.339 549.537V563.531C219.339 566.47 216.971 568.835 214.028 568.835H211.768C208.825 568.835 206.458 566.47 206.458 563.531V549.537Z" fill="#555061"/>
<path d="M471.486 605.627H447.192C444.367 605.627 442.107 603.37 442.107 600.548V596.598C442.107 593.777 444.367 591.52 447.192 591.52H471.486C474.311 591.52 476.571 593.777 476.571 596.598V600.548C476.571 603.313 474.254 605.627 471.486 605.627Z" fill="white"/>
<path d="M447.531 600.153C447.531 598.742 448.717 597.557 450.13 597.557H476.514V596.598C476.514 593.777 474.254 591.52 471.429 591.52H447.136C444.311 591.52 442.051 593.777 442.051 596.598V600.548C442.051 603.37 444.311 605.627 447.136 605.627H447.531V600.153Z" fill="#D8D8D8"/>
<path fill-rule="evenodd" clip-rule="evenodd" d="M447.192 593.776C445.615 593.776 444.367 595.023 444.367 596.598V600.548C444.367 602.123 445.615 603.369 447.192 603.369H471.486C473.006 603.369 474.311 602.066 474.311 600.548V596.598C474.311 595.023 473.063 593.776 471.486 593.776H447.192ZM439.847 596.598C439.847 592.53 443.119 589.262 447.192 589.262H471.486C475.559 589.262 478.83 592.53 478.83 596.598V600.548C478.83 604.559 475.502 607.884 471.486 607.884H447.192C443.119 607.884 439.847 604.616 439.847 600.548V596.598Z" fill="#555061"/>
<path d="M430.356 528.376H404.198C401.203 528.376 398.774 525.95 398.774 522.959V496.607C398.774 493.616 401.203 491.19 404.198 491.19H420.073C426.345 491.19 431.655 495.76 432.616 501.968L435.667 522.112C436.232 525.442 433.689 528.376 430.356 528.376Z" fill="#FB9C46"/>
<path opacity="0.56" d="M409.847 503.096C409.847 500.105 412.277 497.679 415.271 497.679H431.147C428.943 493.785 424.763 491.246 420.073 491.246H404.198C401.203 491.246 398.774 493.673 398.774 496.663V523.015C398.774 526.006 401.203 528.432 404.198 528.432H409.847V503.096Z" fill="#FB9C46"/>
<path fill-rule="evenodd" clip-rule="evenodd" d="M404.198 493.447C402.452 493.447 401.034 494.863 401.034 496.607V522.959C401.034 524.703 402.452 526.119 404.198 526.119H430.356C432.312 526.119 433.766 524.42 433.439 522.49C433.436 522.476 433.434 522.463 433.432 522.45L430.382 502.312C430.382 502.311 430.382 502.31 430.382 502.309C429.589 497.196 425.221 493.447 420.073 493.447H404.198ZM396.514 496.607C396.514 492.369 399.955 488.932 404.198 488.932H420.073C427.467 488.932 433.72 494.323 434.849 501.623L434.85 501.63L437.898 521.757C438.686 526.476 435.059 530.633 430.356 530.633H404.198C399.955 530.633 396.514 527.196 396.514 522.959V496.607Z" fill="#555061"/>
<path d="M381.373 527.812H323.633C320.638 527.812 318.209 525.385 318.209 522.394V496.042C318.209 493.052 320.638 490.625 323.633 490.625H381.373C384.367 490.625 386.797 493.052 386.797 496.042V522.394C386.74 525.385 384.367 527.812 381.373 527.812Z" fill="#FB9C46"/>
<path opacity="0.56" d="M328.661 501.855C328.661 498.864 331.09 496.437 334.085 496.437H386.74V496.042C386.74 493.052 384.311 490.625 381.316 490.625H323.633C320.638 490.625 318.209 493.052 318.209 496.042V522.394C318.209 525.385 320.638 527.812 323.633 527.812H328.717V501.855H328.661Z" fill="#FB9C46"/>
<path fill-rule="evenodd" clip-rule="evenodd" d="M323.633 492.882C321.887 492.882 320.469 494.298 320.469 496.042V522.395C320.469 524.139 321.887 525.555 323.633 525.555H381.373C383.075 525.555 384.493 524.178 384.537 522.371V496.042C384.537 494.298 383.119 492.882 381.373 492.882H323.633ZM315.949 496.042C315.949 491.805 319.39 488.368 323.633 488.368H381.373C385.615 488.368 389.057 491.805 389.057 496.042V522.395C389.057 522.409 389.056 522.423 389.056 522.437C388.977 526.602 385.653 530.069 381.373 530.069H323.633C319.39 530.069 315.949 526.632 315.949 522.395V496.042Z" fill="#555061"/>
<path d="M291.938 528.376H237.531C234.48 528.376 232.277 524.99 233.124 521.548L239.396 495.196C239.961 492.883 241.768 491.246 243.802 491.246H291.938C294.48 491.246 296.514 493.673 296.514 496.663V523.015C296.571 525.95 294.48 528.376 291.938 528.376Z" fill="#FB9C46"/>
<path opacity="0.56" d="M243.294 527.078L249.565 500.726C250.13 498.413 251.938 496.776 253.972 496.776H296.514V496.607C296.514 493.616 294.48 491.19 291.938 491.19H243.802C241.768 491.19 239.96 492.826 239.395 495.14L233.124 521.492C232.333 524.934 234.48 528.32 237.531 528.32H243.124C243.181 527.925 243.237 527.53 243.294 527.078Z" fill="#FB9C46"/>
<path fill-rule="evenodd" clip-rule="evenodd" d="M241.592 495.725L235.323 522.07L235.319 522.087C234.712 524.553 236.375 526.119 237.531 526.119H291.938C292.931 526.119 294.293 525.033 294.255 523.059C294.254 523.044 294.254 523.03 294.254 523.015V496.663C294.254 494.539 292.883 493.503 291.938 493.503H243.802C243.057 493.503 241.975 494.167 241.592 495.725ZM237.2 494.661C237.948 491.596 240.481 488.989 243.802 488.989H291.938C296.077 488.989 298.774 492.806 298.774 496.663V522.995C298.837 526.881 296.021 530.633 291.938 530.633H237.531C232.589 530.633 229.846 525.435 230.927 521.018L237.197 494.674L237.2 494.661Z" fill="#555061"/>
<path opacity="0.48" fill-rule="evenodd" clip-rule="evenodd" d="M296.966 478.945C296.966 478.633 297.219 478.38 297.531 478.38C304.284 478.38 309.734 483.824 309.734 490.569V597.332C309.734 597.643 309.481 597.896 309.169 597.896C308.857 597.896 308.604 597.643 308.604 597.332V490.569C308.604 484.448 303.66 479.509 297.531 479.509C297.219 479.509 296.966 479.256 296.966 478.945Z" fill="#555061"/>
<path fill-rule="evenodd" clip-rule="evenodd" d="M280.243 541.919C280.243 540.672 281.255 539.662 282.503 539.662H299.452C300.7 539.662 301.712 540.672 301.712 541.919C301.712 543.165 300.7 544.176 299.452 544.176H282.503C281.255 544.176 280.243 543.165 280.243 541.919Z" fill="#555061"/>
<path fill-rule="evenodd" clip-rule="evenodd" d="M368.209 540.621C368.209 539.374 369.221 538.364 370.469 538.364H384.932C386.18 538.364 387.192 539.374 387.192 540.621C387.192 541.867 386.18 542.878 384.932 542.878H370.469C369.221 542.878 368.209 541.867 368.209 540.621Z" fill="#555061"/>
<path d="M468.661 579.839H466.458V525.949H468.661C472.39 525.949 475.441 528.997 475.441 532.721V573.067C475.441 576.792 472.39 579.839 468.661 579.839Z" fill="#D8D8D8"/>
<path fill-rule="evenodd" clip-rule="evenodd" d="M464.198 525.95C464.198 524.703 465.21 523.692 466.458 523.692H468.661C473.638 523.692 477.701 527.75 477.701 532.721V573.067C477.701 578.038 473.638 582.096 468.661 582.096H466.458C465.21 582.096 464.198 581.085 464.198 579.839V525.95ZM468.718 528.207V577.581C471.173 577.551 473.181 575.526 473.181 573.067V532.721C473.181 530.262 471.173 528.238 468.718 528.207Z" fill="#555061"/>
<path fill-rule="evenodd" clip-rule="evenodd" d="M439.847 496.889C439.847 495.642 440.859 494.632 442.107 494.632H448.943C450.192 494.632 451.203 495.642 451.203 496.889C451.203 498.136 450.192 499.146 448.943 499.146H442.107C440.859 499.146 439.847 498.136 439.847 496.889Z" fill="#555061"/>
<path fill-rule="evenodd" clip-rule="evenodd" d="M442.672 506.595C442.672 505.348 443.684 504.337 444.932 504.337H451.768C453.017 504.337 454.028 505.348 454.028 506.595C454.028 507.841 453.017 508.852 451.768 508.852H444.932C443.684 508.852 442.672 507.841 442.672 506.595Z" fill="#555061"/>
<path fill-rule="evenodd" clip-rule="evenodd" d="M445.328 516.244C445.328 514.997 446.339 513.987 447.588 513.987H454.424C455.672 513.987 456.684 514.997 456.684 516.244C456.684 517.491 455.672 518.501 454.424 518.501H447.588C446.339 518.501 445.328 517.491 445.328 516.244Z" fill="#555061"/>
<path fill-rule="evenodd" clip-rule="evenodd" d="M446.458 525.95C446.458 524.703 447.469 523.692 448.717 523.692H455.61C456.858 523.692 457.87 524.703 457.87 525.95C457.87 527.196 456.858 528.207 455.61 528.207H448.717C447.469 528.207 446.458 527.196 446.458 525.95Z" fill="#555061"/>
<path d="M366.119 600.83H293.068C290.017 600.83 287.588 598.404 287.588 595.357C287.588 592.309 290.017 589.883 293.068 589.883H366.119C369.17 589.883 371.599 592.309 371.599 595.357C371.599 598.347 369.17 600.83 366.119 600.83Z" fill="white"/>
<path d="M366.119 600.83H293.068C290.017 600.83 287.588 598.404 287.588 595.357C287.588 592.309 290.017 589.883 293.068 589.883H366.119C369.17 589.883 371.599 592.309 371.599 595.357C371.599 598.347 369.17 600.83 366.119 600.83Z" fill="white"/>
<path d="M371.599 589.883H287.588V595.357H371.599V589.883Z" fill="#D8D8D8"/>
<path fill-rule="evenodd" clip-rule="evenodd" d="M293.068 592.14C291.265 592.14 289.847 593.556 289.847 595.357C289.847 597.157 291.265 598.573 293.068 598.573H366.119C367.906 598.573 369.339 597.116 369.339 595.357C369.339 593.556 367.921 592.14 366.119 592.14H293.068ZM285.328 595.357C285.328 591.063 288.769 587.626 293.068 587.626H366.119C370.418 587.626 373.859 591.063 373.859 595.357C373.859 599.579 370.433 603.087 366.119 603.087H293.068C288.769 603.087 285.328 599.65 285.328 595.357Z" fill="#555061"/>
<path fill-rule="evenodd" clip-rule="evenodd" d="M260.136 502.465C260.578 502.905 260.58 503.619 260.14 504.061L249.066 515.178C248.626 515.62 247.911 515.621 247.468 515.182C247.026 514.742 247.024 514.028 247.464 513.586L258.538 502.469C258.978 502.027 259.693 502.026 260.136 502.465Z" fill="#555061"/>
<path fill-rule="evenodd" clip-rule="evenodd" d="M273.355 499.586C273.798 500.025 273.801 500.74 273.361 501.182L258.446 516.192C258.007 516.635 257.291 516.637 256.848 516.198C256.405 515.759 256.403 515.045 256.842 514.602L271.757 499.592C272.197 499.15 272.912 499.147 273.355 499.586Z" fill="#555061"/>
<path fill-rule="evenodd" clip-rule="evenodd" d="M346.121 501.107C346.565 501.544 346.571 502.259 346.133 502.703L335.116 513.876C334.678 514.32 333.963 514.325 333.518 513.888C333.073 513.451 333.068 512.736 333.506 512.292L344.523 501.119C344.961 500.675 345.676 500.67 346.121 501.107Z" fill="#555061"/>
<path fill-rule="evenodd" clip-rule="evenodd" d="M359.4 498.288C359.843 498.728 359.846 499.442 359.407 499.885L344.491 514.894C344.052 515.337 343.336 515.34 342.893 514.9C342.45 514.461 342.448 513.747 342.887 513.304L357.803 498.295C358.242 497.852 358.958 497.849 359.4 498.288Z" fill="#555061"/>
<path fill-rule="evenodd" clip-rule="evenodd" d="M415.839 504.155C416.283 504.593 416.288 505.308 415.849 505.751L406.753 514.949C406.315 515.393 405.599 515.397 405.155 514.959C404.711 514.521 404.707 513.806 405.145 513.363L414.241 504.165C414.68 503.722 415.395 503.717 415.839 504.155Z" fill="#555061"/>
<path fill-rule="evenodd" clip-rule="evenodd" d="M426.743 501.785C427.187 502.222 427.192 502.937 426.754 503.381L414.494 515.795C414.055 516.239 413.34 516.243 412.896 515.806C412.451 515.368 412.447 514.654 412.885 514.21L425.145 501.796C425.583 501.352 426.298 501.347 426.743 501.785Z" fill="#555061"/>
<path d="M498.83 543.95L545.497 433.576C546.514 431.206 549.904 431.206 550.921 433.576L597.588 543.95C603.181 557.155 591.26 570.98 574.311 570.98H522.107C505.158 570.98 493.237 557.155 498.83 543.95Z" fill="#FB9C46"/>
<path d="M498.83 543.95L545.497 433.576C546.514 431.206 549.904 431.206 550.921 433.576L597.588 543.95C603.181 557.155 591.26 570.98 574.311 570.98H522.107C505.158 570.98 493.237 557.155 498.83 543.95Z" fill="#FB9C46"/>
<path opacity="0.56" d="M521.655 549.142L554.932 443L550.978 433.576C549.961 431.206 546.571 431.206 545.554 433.576L498.887 543.95C493.294 557.155 505.215 570.98 522.164 570.98H526.119C521.147 566.804 519.226 559.863 521.655 549.142Z" fill="#FB9C46"/>
<path fill-rule="evenodd" clip-rule="evenodd" d="M548.209 451.634C549.457 451.634 550.469 452.644 550.469 453.891V620.016C550.469 621.263 549.457 622.273 548.209 622.273C546.961 622.273 545.949 621.263 545.949 620.016V453.891C545.949 452.644 546.961 451.634 548.209 451.634Z" fill="#555061"/>
<path fill-rule="evenodd" clip-rule="evenodd" d="M563.291 475.469C564.152 476.371 564.118 477.8 563.215 478.66L549.769 491.469C548.894 492.302 547.519 492.301 546.646 491.466L533.256 478.657C532.355 477.794 532.324 476.366 533.187 475.465C534.05 474.565 535.481 474.534 536.382 475.397L548.212 486.714L560.096 475.393C560.999 474.533 562.429 474.567 563.291 475.469Z" fill="#555061"/>
<path fill-rule="evenodd" clip-rule="evenodd" d="M530.588 499.842C531.451 498.942 532.882 498.911 533.783 499.773L548.209 513.57L562.635 499.773C563.536 498.911 564.967 498.942 565.83 499.842C566.693 500.742 566.662 502.171 565.761 503.033L549.772 518.325C548.898 519.161 547.52 519.161 546.646 518.325L530.657 503.033C529.756 502.171 529.725 500.742 530.588 499.842Z" fill="#555061"/>
<path fill-rule="evenodd" clip-rule="evenodd" d="M519.773 527.762C520.549 526.786 521.971 526.623 522.948 527.399L548.209 547.444L573.47 527.399C574.447 526.623 575.869 526.786 576.645 527.762C577.422 528.738 577.259 530.158 576.282 530.933L549.615 552.094C548.792 552.747 547.626 552.747 546.803 552.094L520.137 530.933C519.159 530.158 518.997 528.738 519.773 527.762Z" fill="#555061"/>
<path fill-rule="evenodd" clip-rule="evenodd" d="M383.278 286.056C384.16 285.175 385.591 285.175 386.474 286.056L391.655 291.231L396.837 286.056C397.719 285.175 399.15 285.175 400.033 286.056C400.915 286.938 400.915 288.367 400.033 289.248L393.253 296.02C392.371 296.901 390.94 296.901 390.057 296.02L383.278 289.248C382.395 288.367 382.395 286.938 383.278 286.056Z" fill="white"/>
<path fill-rule="evenodd" clip-rule="evenodd" d="M433.667 294.866C434.545 293.98 435.976 293.975 436.862 294.852L442.101 300.041L447.289 294.859C448.171 293.978 449.602 293.978 450.485 294.859C451.367 295.74 451.367 297.17 450.485 298.051L443.705 304.822C442.825 305.701 441.4 305.704 440.516 304.829L433.68 298.058C432.794 297.18 432.788 295.751 433.667 294.866Z" fill="white"/>
<path fill-rule="evenodd" clip-rule="evenodd" d="M541.131 331.255C542.013 330.374 543.444 330.374 544.327 331.255L549.515 336.437L554.753 331.249C555.64 330.371 557.07 330.377 557.949 331.262C558.828 332.147 558.822 333.576 557.936 334.454L551.1 341.225C550.216 342.101 548.791 342.098 547.911 341.219L541.131 334.447C540.248 333.566 540.248 332.137 541.131 331.255Z" fill="white"/>
<path fill-rule="evenodd" clip-rule="evenodd" d="M331.203 620.016C331.203 618.769 332.215 617.759 333.463 617.759H490.525C491.773 617.759 492.785 618.769 492.785 620.016C492.785 621.263 491.773 622.273 490.525 622.273H333.463C332.215 622.273 331.203 621.263 331.203 620.016Z" fill="#555061"/>
<path fill-rule="evenodd" clip-rule="evenodd" d="M314.254 620.016C314.254 618.769 315.266 617.759 316.514 617.759H335.554C336.802 617.759 337.813 618.769 337.813 620.016C337.813 621.263 336.802 622.273 335.554 622.273H316.514C315.266 622.273 314.254 621.263 314.254 620.016Z" fill="#555061"/>
</g>
<path fill-rule="evenodd" clip-rule="evenodd" d="M650.909 146.306C648.152 148.116 648.899 147.954 643.238 145.73C638.286 143.672 640.773 143.474 635.912 145.277C631.525 146.978 624.527 148.363 621.19 149.689C622.09 152.168 631.242 161.024 633.302 164.461C632.354 164.756 631.597 164.999 630.568 165.285C628.963 165.752 629.328 165.795 627.639 164.618C623.928 162.133 612.011 154.18 609.613 152.92C606.141 153.824 596.859 156.834 593.83 156.313C592.402 156.062 590.101 155.469 590.747 153.901C592.376 150.076 600.538 148.827 605.898 147.406C608.059 146.838 607.512 146.857 608.195 144.887C608.997 142.775 614.267 127.337 615.162 126.62C615.545 126.416 618.452 125.695 619.028 125.514C619.13 127.003 619.113 128.635 619.024 130.185L618.872 139.261C618.701 140.719 618.776 142.445 618.878 143.851C621.339 143.078 623.773 142.458 626.325 141.696C638.97 137.935 636.405 141.161 639.872 135.668C641.871 132.625 642.099 130.685 645.545 131.579C644.147 137.979 645.648 142.246 650.909 146.306ZM556.032 71.6921C559.167 72.9646 558.429 72.9611 563.361 69.7635C567.689 66.9936 565.212 67.1924 570.459 68.2234C575.089 69.0897 582.343 69.3683 585.99 70.1284C585.787 72.6437 579.04 82.8298 577.876 86.5433C578.868 86.6597 579.668 86.7535 580.751 86.8806C582.462 87.0813 582.078 87.2025 583.514 85.8106C586.515 82.7188 596.047 72.9424 598.138 71.3873C601.833 71.7377 611.604 73.0501 614.439 72.1547C615.77 71.6554 617.896 70.5937 616.883 69.1639C614.277 65.7467 605.984 65.8356 600.397 65.3463C598.149 65.0827 598.705 65.0648 597.447 63.283C596.126 61.3277 587.053 47.0697 586.027 46.5431C585.591 46.4089 582.524 46.1322 581.987 46.0692C582.181 47.5692 582.639 49.0909 583.095 50.6217L585.604 59.5116C586.08 60.8785 586.509 62.6461 586.813 63.9928C584.22 63.6056 581.599 63.3812 578.906 63.0652C565.613 61.5058 569.023 64.2787 564.12 59.4472C561.438 56.7598 560.737 54.951 557.561 56.3881C560.5 62.3925 560.152 66.848 556.032 71.6921ZM555.562 63.2812C556.928 63.2752 557.165 65.1866 555.597 65.252L553.412 65.2449C552.037 65.3328 551.718 63.3288 553.275 63.2623L555.562 63.2812ZM349.616 170.189C348.745 171.398 346.886 170.192 347.646 169.136L348.305 168.152C349.166 167.025 351.027 168.222 350.175 169.276L349.616 170.189ZM353.777 164.205C352.916 165.332 351.045 164.217 351.907 163.081L353.108 161.422C353.878 160.284 355.739 161.481 354.978 162.537L353.777 164.205ZM358.651 157.566C357.891 158.622 355.92 157.569 356.781 156.442L358.063 154.792C358.823 153.736 360.702 154.779 359.923 155.998L358.651 157.566ZM363.779 151.123C362.827 152.24 361.076 150.889 361.919 149.917L363.292 148.278C364.244 147.162 365.903 148.501 365.061 149.464L363.779 151.123ZM369.079 144.784C368.137 145.818 366.377 144.55 367.319 143.515L368.682 141.958C369.534 140.913 371.385 142.192 370.442 143.226L369.079 144.784ZM374.634 138.557C373.792 139.52 371.931 138.323 372.874 137.289L374.328 135.742C375.169 134.779 377.03 135.976 375.987 137.081L374.634 138.557ZM380.342 132.588C379.319 133.53 377.76 132.119 378.693 131.167L380.137 129.702C381.161 128.76 382.811 130.182 381.787 131.123L380.342 132.588ZM386.305 126.732C385.281 127.674 383.722 126.263 384.736 125.32L386.272 123.866C387.296 122.925 388.845 124.417 387.83 125.277L386.305 126.732ZM392.229 121.288C391.372 121.593 390.466 120.832 390.641 120.04C390.607 119.546 391.128 118.952 391.775 118.945L392.589 118.218C393.604 117.359 395.254 118.78 394.149 119.712L393.937 119.937L394.282 120.06C395.663 120.712 394.544 122.464 393.254 121.823L392.229 121.288ZM398.992 115.692C397.795 116.539 396.438 114.986 397.534 114.127L399.142 112.838C400.339 111.917 401.697 113.544 400.611 114.321L398.992 115.692ZM405.698 110.496C404.593 111.345 403.052 109.779 404.24 108.931L405.94 107.653C407.045 106.804 408.495 108.359 407.398 109.218L405.698 110.496ZM412.558 105.567C411.289 106.323 410.032 104.615 411.2 103.93L412.89 102.735C414.169 101.897 415.426 103.604 414.339 104.382L412.558 105.567ZM419.671 100.834C418.483 101.6 417.136 99.9643 418.314 99.1976L420.186 98.0232C421.364 97.2565 422.712 98.975 421.443 99.731L419.671 100.834ZM426.92 96.4403C425.833 97.1345 424.485 95.4991 425.753 94.7523L427.615 93.6597C428.976 92.9145 430.031 94.7648 428.781 95.3569L426.92 96.4403ZM434.513 92.2531C433.163 92.9164 432.098 91.148 433.347 90.556L435.2 89.5454C436.551 88.8821 437.616 90.6505 436.366 91.2425L434.513 92.2531ZM442.16 88.3953C441.002 88.998 439.745 87.2902 441.094 86.6361C441.769 86.309 442.445 85.9728 443.11 85.7276C444.268 85.1249 445.525 86.8327 444.176 87.4869C443.511 87.8152 442.845 88.0694 442.16 88.3953ZM450.052 84.8156C448.711 85.3969 447.836 83.4938 449.087 82.985L451.093 82.1586C452.433 81.5772 453.4 83.4909 452.058 83.9891L450.052 84.8156ZM458.078 81.5838C456.838 82.0939 455.781 80.2526 457.213 79.682L459.3 78.9482C460.54 78.4382 461.597 80.2794 460.165 80.85L458.078 81.5838ZM466.349 78.621C464.835 79.0989 464.152 77.1353 465.474 76.7179L467.561 75.9841C468.974 75.5775 469.748 77.5517 468.426 77.9691L466.349 78.621ZM474.672 75.9967C473.351 76.414 472.476 74.511 473.898 74.0223C474.646 73.8608 475.311 73.6156 476.058 73.4541C477.38 73.0367 478.164 74.929 476.751 75.3357C476.086 75.5808 475.338 75.7424 474.672 75.9967ZM483.14 73.6293C481.646 73.9434 481.145 72.0011 482.457 71.6657L484.617 71.0974C486.112 70.7834 486.604 72.7985 485.209 73.0504L483.14 73.6293ZM491.672 71.5926C490.269 71.9174 489.677 69.9644 491.08 69.6397L493.322 69.1641C494.634 68.8287 495.317 70.7923 493.823 71.1063L491.672 71.5926ZM500.346 69.8311C498.952 70.0739 498.36 68.121 499.845 67.8889C500.593 67.7273 501.339 67.5749 502.077 67.4952C503.389 67.1598 503.981 69.1127 502.487 69.4268C501.74 69.5793 501.093 69.6696 500.346 69.8311ZM509.074 68.3991C507.507 68.5385 507.288 66.5555 508.673 66.3856L510.896 66.0739C512.371 65.9238 512.681 67.9175 511.205 68.0767L509.074 68.3991ZM517.865 67.2145C516.389 67.3737 516.08 65.3709 517.556 65.2117L519.769 64.982C521.153 64.8212 521.554 66.8256 520.078 66.9848L517.865 67.2145ZM526.698 66.3673C525.314 66.5281 524.822 64.513 526.399 64.2825L528.693 64.1455C530.251 64.0789 530.287 66.1328 528.911 66.1376L526.698 66.3673ZM535.523 65.6852C534.056 65.7625 533.929 63.7811 535.396 63.7038L537.59 63.638C539.147 63.5715 539.274 65.5529 537.808 65.6302L535.523 65.6852ZM544.482 65.3421C543.015 65.4194 542.797 63.4272 544.355 63.3607L546.549 63.2949C548.015 63.2176 548.224 65.2917 546.666 65.3583L544.482 65.3421ZM236.2 108.468C233.432 110.276 234.19 110.115 228.537 107.818C223.576 105.842 226.072 105.562 221.201 107.447C216.824 109.066 209.816 110.534 206.479 111.86C207.369 114.337 216.532 123.195 218.592 126.631C217.644 126.926 216.896 127.088 215.867 127.373C214.253 127.922 214.617 127.965 212.929 126.779C209.218 124.294 197.321 116.26 194.904 115.081C191.431 115.985 182.149 118.995 179.121 118.474C177.693 118.223 175.401 117.548 176.047 115.98C177.676 112.155 185.838 110.906 191.198 109.485C193.359 108.917 192.803 109.018 193.486 107.048C194.287 104.853 199.557 89.4984 200.452 88.7817C200.755 88.5678 203.752 87.7746 204.318 87.6748C204.42 89.1641 204.423 90.7155 204.324 92.2641L204.163 101.423C204.001 102.798 204.066 104.606 204.178 105.93C206.631 105.23 209.073 104.538 211.616 103.857C224.26 100.096 221.604 103.312 225.162 97.8294C227.162 94.7863 227.298 92.8358 230.835 93.7401C229.438 100.141 230.938 104.416 236.2 108.468ZM234.536 100.166C233.142 100.409 233.461 102.33 235.027 102.19L237.168 101.786C238.462 101.606 238.243 99.6225 236.677 99.7619L234.536 100.166ZM463.425 171.085C464.484 172.115 465.93 170.641 464.951 169.713L464.126 168.961C462.975 167.921 461.529 169.395 462.507 170.332L463.425 171.085ZM457.75 165.914C458.819 166.861 460.346 165.48 459.368 164.544L457.728 163.04C456.659 162.093 455.122 163.556 456.193 164.494L457.75 165.914ZM451.313 160.247C452.291 161.184 453.909 159.813 452.848 158.793L451.198 157.372C450.12 156.506 448.501 157.877 449.662 158.835L451.313 160.247ZM444.675 154.714C445.835 155.671 447.218 154.033 446.119 153.249L444.369 151.899C443.208 150.941 441.825 152.588 442.924 153.363L444.675 154.714ZM437.826 149.405C438.996 150.28 440.369 148.724 439.28 147.858L437.52 146.59C436.35 145.714 434.904 147.188 436.074 148.063L437.826 149.405ZM430.877 144.25C431.965 145.033 433.41 143.568 432.149 142.682L430.388 141.414C429.3 140.63 427.855 142.095 429.025 142.971L430.877 144.25ZM423.626 139.3C424.988 140.115 426.097 138.445 424.999 137.661L423.138 136.464C421.867 135.659 420.667 137.319 421.856 138.114L423.626 139.3ZM416.347 134.596C417.627 135.319 418.737 133.648 417.548 132.937L415.688 131.73C414.408 131.008 413.207 132.667 414.487 133.39L416.347 134.596ZM408.766 130.106C410.046 130.829 411.247 129.169 409.966 128.363L408.087 127.321C406.898 126.609 405.616 128.176 406.886 128.981L408.766 130.106ZM401.167 125.854C402.548 126.505 403.485 124.732 402.195 124.091L400.224 123.038C398.935 122.397 397.907 124.16 399.197 124.801L401.167 125.854ZM385.317 118.095C386.799 118.675 387.472 116.787 386.254 116.321L384.173 115.421C382.691 114.841 382.018 116.729 383.236 117.195L385.317 118.095ZM377.157 114.682C378.457 115.24 379.312 113.374 378.013 112.815L375.923 111.998C374.523 111.501 373.668 113.367 375.067 113.864L377.157 114.682ZM368.869 111.586C370.087 112.052 371.113 110.298 369.633 109.709L367.533 108.973C365.95 108.464 365.451 110.446 366.769 110.85L368.869 111.586ZM360.471 108.717C361.88 109.132 362.462 107.233 361.144 106.829L358.943 106.165C357.535 105.75 356.862 107.638 358.26 108.051L360.471 108.717ZM351.925 106.237C353.243 106.641 354.007 104.764 352.517 104.257C351.807 104.091 351.017 103.832 350.306 103.675C348.989 103.271 348.225 105.148 349.715 105.655C350.425 105.812 351.225 105.989 351.925 106.237ZM343.269 103.994C344.779 104.337 345.198 102.337 343.77 102.086L341.643 101.587C340.133 101.244 339.714 103.244 341.142 103.495L343.269 103.994ZM334.556 102.15C335.984 102.401 336.485 100.493 334.976 100.15L332.748 99.722C331.42 99.4001 330.829 101.38 332.419 101.733L334.556 102.15ZM325.825 100.553C327.344 100.815 327.49 98.7821 326.143 98.6241L323.906 98.2785C322.386 98.0172 322.149 100.039 323.587 100.208L325.825 100.553ZM316.945 99.3454C318.383 99.5141 318.711 97.5029 317.182 97.3236C316.463 97.2392 315.653 97.1442 314.935 97.0599C313.588 96.9019 313.169 98.9024 314.697 99.0817C315.517 99.1779 316.226 99.2611 316.945 99.3454ZM308.037 98.4666C309.676 98.4926 309.63 96.5207 308.183 96.434L306.017 96.263C304.478 96.1656 304.423 98.2089 305.871 98.2955L308.037 98.4666ZM299.192 97.8352C300.639 97.9219 300.694 95.8786 299.247 95.792L296.98 95.6922C295.533 95.6056 295.478 97.6488 296.925 97.7355L299.192 97.8352ZM290.298 97.5305C291.655 97.6065 291.801 95.574 290.253 95.5586C289.524 95.5562 288.705 95.5432 287.976 95.5408C286.62 95.4648 286.474 97.4973 288.022 97.5127C288.75 97.5151 289.479 97.5175 290.298 97.5305ZM281.378 97.5458C282.935 97.4792 282.625 95.4855 281.251 95.5643L278.964 95.5454C277.488 95.7046 277.706 97.6967 279.082 97.6088L281.378 97.5458ZM272.408 97.8877C273.875 97.8105 273.757 95.7561 272.291 95.8243L269.997 95.9614C268.621 96.0493 268.748 98.0307 270.215 97.9535L272.408 97.8877ZM263.602 98.415C264.968 98.409 264.85 96.3547 263.293 96.4121L261.08 96.6418C259.513 96.7904 260.005 98.8055 261.389 98.6447L263.602 98.415ZM254.759 99.3441C256.244 99.112 255.843 97.0985 254.359 97.3306L252.146 97.5603C250.671 97.7104 251.071 99.7239 252.546 99.5738L254.759 99.3441ZM245.886 100.436C247.361 100.286 247.062 98.2011 245.486 98.4225L243.355 98.7449C241.971 98.9057 242.189 100.898 243.755 100.758L245.886 100.436ZM649.235 138.004C647.842 138.247 648.16 140.167 649.727 140.028L651.868 139.624C653.162 139.443 653.034 137.471 651.367 137.681L649.235 138.004ZM878.115 209.005C879.184 209.952 880.72 208.489 879.642 207.624L878.826 206.789C877.675 205.75 876.22 207.305 877.208 208.16L878.115 209.005ZM872.44 203.834C873.519 204.782 875.046 203.318 874.067 202.39L872.407 200.968C871.338 200.02 869.8 201.4 870.88 202.349L872.44 203.834ZM866.012 198.085C866.99 199.021 868.608 197.651 867.539 196.704L865.889 195.282C864.82 194.335 863.202 195.705 864.354 196.736L866.012 198.085ZM859.365 192.633C860.534 193.509 861.908 191.953 860.819 191.086L859.159 189.747C857.898 188.86 856.524 190.426 857.705 191.294L859.365 192.633ZM852.535 187.243C853.705 188.119 855.068 186.562 853.989 185.697L852.229 184.428C851.059 183.552 849.685 185.118 850.775 185.975L852.535 187.243ZM845.576 182.087C846.665 182.954 848.111 181.48 846.949 180.531L845.098 179.252C844.101 178.48 842.565 179.934 843.816 180.902L845.576 182.087ZM838.417 177.148C839.687 177.953 840.797 176.283 839.699 175.581L837.847 174.302C836.567 173.58 835.367 175.239 836.566 175.953L838.417 177.148ZM831.057 172.435C832.337 173.157 833.528 171.58 832.247 170.774L830.378 169.65C829.107 168.845 827.988 170.598 829.177 171.31L831.057 172.435ZM823.475 167.945C824.756 168.667 825.956 167.008 824.676 166.285L822.806 165.161C821.617 164.449 820.336 166.099 821.606 166.821L823.475 167.945ZM815.866 163.691C817.247 164.343 818.184 162.569 816.894 161.928L815.015 160.886C813.634 160.235 812.596 162.08 813.896 162.638L815.866 163.691ZM807.955 159.735C809.245 160.376 810.354 158.622 808.993 157.89L807.003 157.001C805.713 156.361 804.686 158.123 805.975 158.764L807.955 159.735ZM800.017 156.015C801.498 156.595 802.18 154.635 800.963 154.16L798.882 153.26C797.401 152.68 796.728 154.568 797.936 155.116L800.017 156.015ZM791.867 152.52C793.258 153.09 794.021 151.222 792.713 150.736L790.622 149.918C789.232 149.349 788.377 151.215 789.777 151.703L791.867 152.52ZM783.578 149.424C784.796 149.89 785.824 148.128 784.342 147.547L782.242 146.812C780.66 146.303 780.151 148.284 781.478 148.689L783.578 149.424ZM775.162 146.627C776.571 147.042 777.162 145.062 775.844 144.658L773.644 143.993C772.235 143.579 771.643 145.476 773.062 145.892L775.162 146.627ZM766.635 144.076C767.952 144.48 768.726 142.604 767.216 142.178C766.517 141.929 765.808 141.763 765.016 141.513C763.78 141.202 762.924 143.068 764.424 143.494C765.226 143.661 765.925 143.91 766.635 144.076ZM757.969 141.831C759.478 142.175 759.888 140.256 758.47 139.924L756.342 139.425C754.832 139.081 754.413 141.082 755.841 141.333L757.969 141.831ZM749.266 139.989C750.684 140.321 751.185 138.33 749.685 137.988L747.457 137.561C746.12 137.321 745.528 139.218 747.129 139.572L749.266 139.989ZM740.515 138.473C742.043 138.652 742.189 136.62 740.843 136.462L738.605 136.116C737.076 135.937 736.849 137.877 738.277 138.127L740.515 138.473ZM731.654 137.184C733.092 137.353 733.411 135.424 731.892 135.162C731.173 135.078 730.363 134.983 729.644 134.899C728.298 134.741 727.878 136.741 729.407 136.92C730.217 137.015 730.936 137.1 731.654 137.184ZM722.746 136.305C724.376 136.413 724.34 134.359 722.892 134.273L720.726 134.102C719.188 134.004 719.133 136.048 720.58 136.134L722.746 136.305ZM713.891 135.673C715.338 135.759 715.485 133.727 713.937 133.711L711.67 133.612C710.223 133.525 710.177 135.486 711.624 135.573L713.891 135.673ZM704.998 135.451C706.364 135.445 706.51 133.413 704.962 133.397C704.234 133.395 703.414 133.382 702.686 133.38C701.33 133.304 701.184 135.336 702.732 135.351C703.46 135.354 704.188 135.356 704.998 135.451ZM696.077 135.383C697.635 135.317 697.314 133.322 695.95 133.402L693.665 133.457C692.199 133.534 692.417 135.526 693.792 135.438L696.077 135.383ZM687.108 135.725C688.574 135.648 688.446 133.676 686.981 133.744L684.706 133.8C683.331 133.888 683.449 135.942 684.915 135.874L687.108 135.725ZM678.302 136.336C679.677 136.248 679.559 134.193 677.993 134.333L675.79 134.481C674.214 134.702 674.714 136.653 676.099 136.483L678.302 136.336ZM669.458 137.182C670.943 136.95 670.533 135.018 669.149 135.179L666.845 135.398C665.361 135.63 665.77 137.561 667.245 137.411L669.458 137.182ZM660.678 138.275C662.062 138.114 661.753 136.112 660.278 136.262L658.055 136.573C656.671 136.734 656.88 138.808 658.455 138.587L660.678 138.275Z" fill="#CCCCCC"/>
<defs>
<clipPath id="clip0_518_1469">
<rect width="500" height="337.442" fill="white" transform="translate(99 285)"/>
</clipPath>
</defs>
</svg>
