<svg width="13" height="17" viewBox="0 0 13 17" fill="none" xmlns="http://www.w3.org/2000/svg">
<path fill-rule="evenodd" clip-rule="evenodd" d="M10.6722 3.58817H9.41667C9.21076 3.58817 9.04188 3.38923 9.04188 3.1495V2.01924C9.04188 1.22222 8.42101 0.575195 7.65826 0.575195H1.38048C0.620872 0.575195 0 1.22222 0 2.01924V15.1983C0 15.9921 0.620872 16.6423 1.38048 16.6423H10.6722C11.435 16.6423 12.0527 15.9921 12.0527 15.1983V5.03221C12.0527 4.2352 11.435 3.58817 10.6722 3.58817Z" fill="white"/>
<path fill-rule="evenodd" clip-rule="evenodd" d="M11.0503 15.1983C11.0503 15.4405 10.8808 15.6369 10.6724 15.6369H1.38064C1.17473 15.6369 1.00586 15.4405 1.00586 15.1983V2.01924C1.00586 1.77637 1.17473 1.58057 1.38064 1.58057H7.65842C7.86684 1.58057 8.03634 1.77637 8.03634 2.01924V3.1495C8.03634 3.94338 8.65408 4.5904 9.41683 4.5904H10.6724C10.8808 4.5904 11.0503 4.78934 11.0503 5.03221V15.1983Z" fill="white"/>
<path fill-rule="evenodd" clip-rule="evenodd" d="M2.51115 5.5957H6.53081C6.80766 5.5957 7.03052 5.3704 7.03052 5.09302C7.03052 4.81626 6.80766 4.59033 6.53081 4.59033H2.51115C2.2343 4.59033 2.0083 4.81626 2.0083 5.09302C2.0083 5.3704 2.2343 5.5957 2.51115 5.5957Z" fill="#5041BC"/>
<path fill-rule="evenodd" clip-rule="evenodd" d="M9.54163 7.26929H2.51115C2.2343 7.26929 2.0083 7.49208 2.0083 7.77197C2.0083 8.04873 2.2343 8.27152 2.51115 8.27152H9.54163C9.82162 8.27152 10.0445 8.04873 10.0445 7.77197C10.0445 7.49208 9.82162 7.26929 9.54163 7.26929Z" fill="#5041BC"/>
<path fill-rule="evenodd" clip-rule="evenodd" d="M9.54163 9.94507H2.51115C2.2343 9.94507 2.0083 10.1704 2.0083 10.4478C2.0083 10.7245 2.2343 10.9504 2.51115 10.9504H9.54163C9.82162 10.9504 10.0445 10.7245 10.0445 10.4478C10.0445 10.1704 9.82162 9.94507 9.54163 9.94507Z" fill="#5041BC"/>
<path fill-rule="evenodd" clip-rule="evenodd" d="M9.54163 12.624H2.51115C2.2343 12.624 2.0083 12.8499 2.0083 13.1267C2.0083 13.4035 2.2343 13.6294 2.51115 13.6294H9.54163C9.82162 13.6294 10.0445 13.4035 10.0445 13.1267C10.0445 12.8499 9.82162 12.624 9.54163 12.624Z" fill="#5041BC"/>
</svg>
