<svg width="18" height="18" viewBox="0 0 18 18" fill="none" xmlns="http://www.w3.org/2000/svg">
<g clip-path="url(#clip0_437_1107)">
<path d="M14.5667 0.933594H2.5C1.12167 0.933594 0 2.05526 0 3.43359V15.5003C0 16.8789 1.12167 18.0003 2.5 18.0003H14.5667C15.9453 18.0003 17.0667 16.8789 17.0667 15.5003V3.43359C17.0667 2.05526 15.9453 0.933594 14.5667 0.933594ZM16.0667 15.5003C16.0667 16.3273 15.3937 17.0003 14.5667 17.0003H2.5C1.673 17.0003 1 16.3273 1 15.5003V3.43359C1 2.60659 1.673 1.93359 2.5 1.93359H14.5667C15.3937 1.93359 16.0667 2.60659 16.0667 3.43359V15.5003Z" fill="white"/>
<path d="M14.0332 2.9668C13.4819 2.9668 13.0332 3.41546 13.0332 3.9668C13.0332 4.51813 13.4819 4.9668 14.0332 4.9668C14.5845 4.9668 15.0332 4.51813 15.0332 3.9668C15.0332 3.41546 14.5845 2.9668 14.0332 2.9668Z" fill="white"/>
<path d="M8.5332 4.9668C6.05187 4.9668 4.0332 6.98546 4.0332 9.4668C4.0332 11.9481 6.05187 13.9668 8.5332 13.9668C11.0145 13.9668 13.0332 11.9481 13.0332 9.4668C13.0332 6.98546 11.0145 4.9668 8.5332 4.9668ZM8.5332 12.9668C6.6032 12.9668 5.0332 11.3968 5.0332 9.4668C5.0332 7.5368 6.6032 5.9668 8.5332 5.9668C10.4632 5.9668 12.0332 7.5368 12.0332 9.4668C12.0332 11.3968 10.4632 12.9668 8.5332 12.9668Z" fill="white"/>
</g>
<defs>
<clipPath id="clip0_437_1107">
<rect width="17.0667" height="17.0667" fill="white" transform="translate(0 0.933594)"/>
</clipPath>
</defs>
</svg>
