<svg width="26" height="26" viewBox="0 0 26 26" fill="none" xmlns="http://www.w3.org/2000/svg">
<path d="M12.9998 23.8333C12.7471 23.8333 12.5304 23.7611 12.3498 23.6167C12.1693 23.4722 12.0339 23.2826 11.9436 23.0479C11.6005 22.0368 11.1672 21.0889 10.6436 20.2042C10.138 19.3194 9.42484 18.2813 8.504 17.0896C7.58317 15.8979 6.83387 14.7604 6.25609 13.6771C5.69637 12.5938 5.4165 11.2847 5.4165 9.75C5.4165 7.6375 6.14775 5.85 7.61025 4.3875C9.09081 2.90695 10.8873 2.16667 12.9998 2.16667C15.1123 2.16667 16.8998 2.90695 18.3623 4.3875C19.8429 5.85 20.5832 7.6375 20.5832 9.75C20.5832 11.3931 20.2672 12.7653 19.6353 13.8667C19.0214 14.95 18.3082 16.0243 17.4957 17.0896C16.5207 18.3896 15.7804 19.4729 15.2748 20.3396C14.7873 21.1882 14.3811 22.091 14.0561 23.0479C13.9658 23.3007 13.8214 23.4993 13.6228 23.6438C13.4422 23.7701 13.2346 23.8333 12.9998 23.8333ZM12.9998 19.9604C13.3068 19.3465 13.6498 18.7417 14.029 18.1458C14.4262 17.55 15.004 16.7556 15.7623 15.7625C16.5387 14.7514 17.1707 13.8215 17.6582 12.9729C18.1637 12.1063 18.4165 11.0319 18.4165 9.75C18.4165 8.25139 17.8839 6.97848 16.8186 5.93125C15.7714 4.86598 14.4984 4.33334 12.9998 4.33334C11.5012 4.33334 10.2193 4.86598 9.154 5.93125C8.10678 6.97848 7.58317 8.25139 7.58317 9.75C7.58317 11.0319 7.82692 12.1063 8.31442 12.9729C8.81998 13.8215 9.46095 14.7514 10.2373 15.7625C10.9957 16.7556 11.5644 17.55 11.9436 18.1458C12.3408 18.7417 12.6929 19.3465 12.9998 19.9604ZM12.9998 12.4583C13.7582 12.4583 14.3991 12.1965 14.9228 11.6729C15.4464 11.1493 15.7082 10.5083 15.7082 9.75C15.7082 8.99167 15.4464 8.3507 14.9228 7.82709C14.3991 7.30348 13.7582 7.04167 12.9998 7.04167C12.2415 7.04167 11.6005 7.30348 11.0769 7.82709C10.5533 8.3507 10.2915 8.99167 10.2915 9.75C10.2915 10.5083 10.5533 11.1493 11.0769 11.6729C11.6005 12.1965 12.2415 12.4583 12.9998 12.4583Z" fill="#35353A"/>
</svg>
