<svg width="23" height="23" viewBox="0 0 23 23" fill="none" xmlns="http://www.w3.org/2000/svg">
<path d="M14.423 4.79168C15.359 4.9743 16.2192 5.43209 16.8936 6.10645C17.568 6.78081 18.0257 7.64106 18.2084 8.57709M14.423 0.958344C16.3677 1.17439 18.1811 2.04526 19.5656 3.42798C20.9501 4.81069 21.8232 6.62306 22.0417 8.56751M21.0834 16.215V19.09C21.0845 19.3569 21.0298 19.6211 20.9229 19.8656C20.8159 20.1102 20.6591 20.3297 20.4624 20.5101C20.2658 20.6906 20.0336 20.8279 19.7808 20.9134C19.5279 20.9989 19.26 21.0307 18.9942 21.0067C16.0453 20.6862 13.2126 19.6786 10.7238 18.0646C8.40829 16.5932 6.44515 14.6301 4.97379 12.3146C3.35418 9.8145 2.34627 6.96805 2.0317 4.00584C2.00776 3.74083 2.03925 3.47374 2.12418 3.22157C2.20912 2.96939 2.34563 2.73767 2.52502 2.54115C2.70442 2.34462 2.92277 2.18761 3.16617 2.08009C3.40957 1.97258 3.6727 1.91693 3.93879 1.91668H6.81379C7.27887 1.9121 7.72976 2.07679 8.08239 2.38006C8.43503 2.68333 8.66536 3.10448 8.73045 3.56501C8.8518 4.48507 9.07684 5.38846 9.40129 6.25793C9.53023 6.60094 9.55813 6.97372 9.4817 7.3321C9.40527 7.69049 9.2277 8.01945 8.97004 8.28001L7.75295 9.49709C9.1172 11.8963 11.1037 13.8829 13.503 15.2471L14.72 14.03C14.9806 13.7723 15.3096 13.5948 15.6679 13.5183C16.0263 13.4419 16.3991 13.4698 16.7421 13.5988C17.6116 13.9232 18.515 14.1482 19.435 14.2696C19.9006 14.3353 20.3257 14.5697 20.6296 14.9284C20.9336 15.2871 21.095 15.745 21.0834 16.215Z" stroke="#35353A" stroke-width="1.6" stroke-linecap="round" stroke-linejoin="round"/>
</svg>
