<svg width="48" height="45" viewBox="0 0 48 45" fill="none" xmlns="http://www.w3.org/2000/svg">
<path d="M1.77208 1.03039C1.50652 1.12007 1.13277 1.36221 0.83771 1.63124C-0.0769883 2.46526 0.0016954 0.770325 0.0016954 19.3966C0.0016954 38.0319 -0.0671528 36.4267 0.818039 37.2338C1.71307 38.0499 0.808203 37.9871 13.8107 38.0678L25.2198 38.1396L25.8395 40.3277C26.1739 41.5294 26.5574 42.6953 26.6755 42.9194C26.9902 43.4844 27.6197 44.0942 28.2393 44.435C29.2425 44.9821 29.4589 45 34.5242 45C39.4026 45 39.7075 44.9731 40.6418 44.5426C41.1729 44.2915 41.9598 43.6189 42.2647 43.1347C42.786 42.3276 42.8843 41.8164 42.8843 39.8883V38.1127L44.2416 38.0588C46.012 37.9781 46.5234 37.8346 47.1824 37.2338C48.0676 36.4267 47.9987 38.023 47.9987 19.4415C47.9987 0.860001 48.0676 2.45629 47.1824 1.64021C46.2579 0.797226 48.6085 0.877937 23.9609 0.886906C4.41782 0.886906 2.1655 0.904842 1.77208 1.03039ZM46.0907 2.18725C46.2382 2.2859 46.4546 2.48319 46.5628 2.61771C46.7595 2.85088 46.7693 2.99436 46.7988 5.81925L46.8283 8.76969H24.0002H1.18195V5.95377C1.18195 3.03024 1.21146 2.80604 1.60488 2.41145C2.08681 1.93615 0.759026 1.96305 24.1182 1.98099L45.8251 1.99892L46.0907 2.18725ZM46.8185 22.7955C46.8185 31.7365 46.789 35.8258 46.7103 36.0052C46.5628 36.3549 46.1497 36.7316 45.7956 36.8302C45.6284 36.8751 44.9006 36.9468 44.1924 36.9737L42.8843 37.0365V35.8438C42.8843 34.4358 42.7663 34.104 42.0975 33.5928C41.5368 33.1534 40.9369 33.0279 40.1894 33.2072L39.6484 33.3417L39.1763 32.9113C38.5862 32.3732 37.9764 32.1849 37.2879 32.3284C37.042 32.3732 36.7667 32.4449 36.688 32.4808C36.5896 32.5167 36.4913 32.4449 36.3732 32.2746C36.2847 32.1311 36.029 31.8979 35.7929 31.7544C35.4487 31.5482 35.2717 31.5033 34.7799 31.5033C34.4455 31.5033 34.0816 31.5392 33.9537 31.5751L33.7373 31.6468V27.7727C33.7373 24.0241 33.7275 23.8806 33.5308 23.5039C33.098 22.6789 31.9965 22.1946 31.0227 22.3919C30.3146 22.5354 29.7835 22.9121 29.4687 23.486L29.213 23.9613V29.5393V35.1174L28.6131 34.5524C27.7377 33.7184 26.7542 33.2879 25.328 33.1265C24.7772 33.0637 24.2953 33.2431 24.0297 33.6018C23.7445 33.9785 23.7445 34.2834 24.0101 34.8394C24.2363 35.3236 24.8854 36.911 24.8854 36.9917C24.8854 37.0903 2.46056 36.9289 2.17533 36.8302C1.82126 36.7047 1.47701 36.3998 1.31965 36.059C1.20162 35.8169 1.18195 33.5839 1.18195 22.8045V9.84584H24.0002H46.8185V22.7955ZM31.9079 23.5129C32.5866 23.773 32.5571 23.5847 32.5571 28.4184C32.5571 34.0323 32.6358 36.5433 32.8226 36.7137C33.039 36.911 33.5013 36.8661 33.6783 36.6419C33.8062 36.4805 33.8357 36.1307 33.8357 34.7049C33.8357 32.983 33.8357 32.974 34.0816 32.7588C34.3373 32.5167 34.7897 32.4629 35.1241 32.6333C35.5175 32.8216 35.5864 33.1713 35.5274 34.8304C35.488 36.1935 35.4979 36.4088 35.6454 36.615C35.7831 36.8123 35.8815 36.8482 36.1765 36.8213C36.7076 36.7854 36.7863 36.5791 36.7863 35.0725V33.8081L37.0912 33.5749C37.4945 33.261 37.8781 33.27 38.2813 33.6018L38.6059 33.8619L38.6551 35.5478C38.7042 37.2248 38.7042 37.2428 38.9403 37.3414C39.2354 37.4759 39.5501 37.3773 39.7075 37.0993C39.7861 36.9648 39.8353 36.4805 39.8353 35.8079C39.8353 34.5972 39.914 34.4089 40.4648 34.2385C40.868 34.1219 41.2024 34.2206 41.4975 34.5614C41.7139 34.8125 41.7139 34.8304 41.6844 38.3548L41.6549 41.9061L41.3893 42.3545C41.0549 42.9374 40.3959 43.4934 39.7763 43.7086C39.3239 43.87 38.9796 43.879 34.475 43.879C29.7638 43.879 29.6458 43.879 29.2032 43.6907C28.5934 43.4306 27.9934 42.9194 27.7377 42.4531C27.6295 42.2379 27.1869 40.812 26.7542 39.2785C26.0558 36.7944 25.5149 35.1891 25.1215 34.4986C25.0526 34.3641 25.0133 34.2385 25.0428 34.2206C25.1411 34.1309 26.0952 34.3282 26.6361 34.5524C27.3541 34.8483 27.9049 35.3416 28.6327 36.3191L29.213 37.0993V38.1844C29.213 39.144 29.2327 39.2785 29.4097 39.4399C29.6556 39.6641 29.813 39.6641 30.1376 39.4309L30.3933 39.2516V31.7185C30.3933 23.5936 30.3834 23.8268 30.9047 23.5936C31.4162 23.3605 31.4948 23.3605 31.9079 23.5129Z" fill="#FA7436"/>
<path d="M4.5262 3.29011C4.00492 3.38876 3.60167 3.61296 3.21808 4.02548C2.62796 4.65323 2.51977 5.49622 2.95253 6.25849C3.76887 7.70232 6.09004 7.71129 6.90638 6.26746C7.78174 4.74291 6.3556 2.9583 4.5262 3.29011ZM5.58843 4.46491C5.68679 4.46491 6.00152 5.09266 6.00152 5.29892C6.00152 6.15984 4.91962 6.58133 4.21147 5.99842C3.38529 5.32583 4.18196 4.11516 5.26386 4.39316C5.42123 4.42904 5.56876 4.46491 5.58843 4.46491Z" fill="#FA7436"/>
<path d="M10.4272 3.31704C8.76499 3.59505 8.08634 5.57695 9.2666 6.72484C10.0731 7.50505 11.5779 7.54989 12.4238 6.81452C13.2991 6.05225 13.3877 4.84158 12.6205 4.02551C12.0402 3.40672 11.3025 3.16459 10.4272 3.31704ZM11.6566 4.65326C11.9025 4.86849 11.9517 4.98507 11.9517 5.32585C11.9517 5.6756 11.9025 5.77425 11.6271 5.99844C10.919 6.58136 9.83705 6.15987 9.83705 5.29895C9.83705 4.91333 10.1715 4.48287 10.5452 4.39319C10.9976 4.27661 11.3124 4.34835 11.6566 4.65326Z" fill="#FA7436"/>
<path d="M16.4566 3.30867C14.2633 3.68532 13.9584 6.42949 16.0337 7.22764C16.5746 7.4339 17.5877 7.34422 18.0893 7.03931C18.7188 6.65369 19.0236 6.16943 19.063 5.44303C19.0925 4.94979 19.063 4.7525 18.886 4.42965C18.4434 3.58667 17.4598 3.13828 16.4566 3.30867ZM17.686 4.68972C18.0204 5.04844 17.9909 5.65826 17.6172 5.99904C17.3811 6.2053 17.2434 6.2591 16.8894 6.2591C16.1419 6.2591 15.6501 5.7031 15.8468 5.05741C16.0828 4.3041 17.1156 4.09784 17.686 4.68972Z" fill="#FA7436"/>
<path d="M25.4755 4.70733C25.0821 4.83288 24.9542 5.32612 25.2591 5.56825C25.4263 5.71174 26.2623 5.7207 35.2913 5.7207H45.1464L45.3038 5.49651C45.5103 5.20953 45.4218 4.88669 45.0973 4.75217C44.9104 4.67146 42.3827 4.64456 35.2323 4.65352C29.9506 4.65352 25.5542 4.68043 25.4755 4.70733Z" fill="#FA7436"/>
<path d="M11.5485 15.3786C10.7518 16.2574 10.083 16.9928 10.0732 17.0108C10.0535 17.0287 9.7978 16.8493 9.4929 16.6251C9.188 16.4009 8.87327 16.2126 8.80442 16.2126C8.72574 16.2126 8.5487 16.3023 8.40117 16.4189C7.99791 16.7327 8.12577 16.9928 9.01097 17.6385C9.73879 18.1766 10.0437 18.2752 10.4666 18.1317C10.742 18.0331 13.8697 14.5446 13.8697 14.3293C13.8697 13.9706 13.6926 13.7913 13.3386 13.7913C13.0238 13.7913 12.9058 13.8989 11.5485 15.3786Z" fill="#FA7436"/>
<path d="M6.28629 14.2854C5.82402 14.5186 5.79452 14.7159 5.82402 17.6843L5.85353 20.4464L6.12892 20.6616L6.40432 20.8768H9.55167H12.699L12.9351 20.6526C13.1711 20.4464 13.181 20.3926 13.181 19.2805C13.181 18.2761 13.1613 18.1058 13.0039 17.9802C12.758 17.7739 12.4335 17.7919 12.1974 18.0071C12.0302 18.1596 12.0007 18.303 12.0007 18.9936V19.8007H9.49265H6.98461L7.00428 17.5318L7.03379 15.2719L8.41075 15.245C9.66969 15.2271 9.79755 15.2091 9.96476 15.0387C10.191 14.7787 10.1811 14.6352 9.88607 14.3751C9.65002 14.1599 9.62051 14.1509 8.09602 14.1509C6.94527 14.1599 6.47317 14.1868 6.28629 14.2854Z" fill="#FA7436"/>
<path d="M19.1806 14.5721C18.6986 14.7335 18.5413 15.1729 18.8658 15.433C19.033 15.5765 20.0067 15.5854 30.8159 15.5854C41.3792 15.5854 42.589 15.5675 42.7267 15.442C42.8939 15.2985 42.9332 14.9846 42.8053 14.8052C42.766 14.7514 42.6086 14.6528 42.4611 14.6079C42.166 14.5093 19.4756 14.4734 19.1806 14.5721Z" fill="#FA7436"/>
<path d="M18.8856 19.1722C18.6397 19.3964 18.6298 19.7282 18.8659 19.9165C19.0331 20.06 20.0068 20.069 30.8061 20.069C42.0677 20.069 42.5694 20.06 42.7169 19.9075C42.9431 19.6834 42.9234 19.3874 42.6874 19.1722C42.4907 18.9928 42.3628 18.9928 30.7865 18.9928C19.2101 18.9928 19.0823 18.9928 18.8856 19.1722Z" fill="#FA7436"/>
<path d="M11.647 26.679C10.8995 27.504 10.2307 28.2394 10.1717 28.3111C10.0733 28.4277 9.99466 28.4008 9.63075 28.1318C8.89309 27.5847 8.60786 27.5399 8.27345 27.9076C8.0374 28.1676 8.23411 28.4815 9.01111 29.0375C9.88647 29.6742 10.2405 29.737 10.7126 29.3245C10.8799 29.19 11.647 28.3739 12.4339 27.513C13.919 25.8898 14.0665 25.6387 13.7125 25.3248C13.6338 25.2441 13.4371 25.1813 13.2895 25.1813C13.0535 25.1813 12.8174 25.3965 11.647 26.679Z" fill="#FA7436"/>
<path d="M6.53265 25.602C6.41463 25.62 6.21792 25.7366 6.09006 25.8621L5.854 26.0953V28.9471V31.7989L6.09006 32.032L6.32611 32.2652H9.5128H12.6995L12.9355 32.041C13.1716 31.8347 13.1814 31.7809 13.1814 30.6599C13.1814 29.5569 13.1716 29.4851 12.965 29.3596C12.6601 29.1623 12.4339 29.1802 12.1979 29.4134C12.0307 29.5748 12.0012 29.7273 12.0012 30.3999V31.189H9.49313H6.98508L7.00475 28.9202L7.03426 26.6603L8.4309 26.6334C9.80786 26.6154 9.83737 26.6065 9.99473 26.3823C10.2013 26.1043 10.0636 25.7545 9.68 25.629C9.44395 25.5393 6.96541 25.5213 6.53265 25.602Z" fill="#FA7436"/>
<path d="M18.856 26.1495C18.6495 26.3558 18.6396 26.6159 18.8265 26.849C18.9642 27.0104 19.1412 27.0194 22.7902 27.0463C24.8852 27.0553 26.7047 27.0463 26.8227 27.0194C27.3243 26.9118 27.5112 26.4186 27.167 26.1406C26.9998 26.006 26.567 25.9881 22.9967 25.9881C19.2593 25.9881 19.0035 25.9971 18.856 26.1495Z" fill="#FA7436"/>
<path d="M37.0223 26.2121C36.8354 26.4722 36.9141 26.7502 37.2289 26.9385C37.4157 27.0551 37.8583 27.064 40.032 27.0461C42.4515 27.0192 42.6187 27.0102 42.7466 26.8488C42.9334 26.6067 42.9236 26.3107 42.7072 26.1403C42.5498 26.0058 42.2056 25.9879 39.8549 25.9879H37.1797L37.0223 26.2121Z" fill="#FA7436"/>
<path d="M19.0824 30.4453C18.689 30.5709 18.5612 31.0641 18.8661 31.3063C19.0136 31.4318 19.2792 31.4587 20.3217 31.4587C21.7282 31.4587 21.8364 31.4228 21.8364 30.9565C21.8364 30.4722 21.5807 30.3826 20.3119 30.3915C19.7218 30.3915 19.1611 30.4184 19.0824 30.4453Z" fill="#FA7436"/>
</svg>
