<svg width="48" height="45" viewBox="0 0 48 45" fill="none" xmlns="http://www.w3.org/2000/svg">
<path d="M1.77208 0.149532C1.50652 0.239212 1.13277 0.481346 0.83771 0.750381C-0.0769883 1.5844 0.0016954 -0.110535 0.0016954 18.5158C0.0016954 37.1511 -0.0671528 35.5458 0.818039 36.3529C1.71307 37.169 0.808203 37.1062 13.8107 37.187L25.2198 37.2587L25.8395 39.4469C26.1739 40.6486 26.5574 41.8144 26.6755 42.0386C26.9902 42.6036 27.6197 43.2134 28.2393 43.5542C29.2425 44.1012 29.4589 44.1191 34.5242 44.1191C39.4026 44.1191 39.7075 44.0922 40.6418 43.6618C41.1729 43.4107 41.9598 42.7381 42.2647 42.2538C42.786 41.4467 42.8843 40.9355 42.8843 39.0074V37.2318L44.2416 37.178C46.012 37.0973 46.5234 36.9538 47.1824 36.3529C48.0676 35.5458 47.9987 37.1421 47.9987 18.5606C47.9987 -0.0208588 48.0676 1.57543 47.1824 0.75935C46.2579 -0.0836334 48.6085 -0.00292206 23.9609 0.0060463C4.41782 0.0060463 2.1655 0.023983 1.77208 0.149532ZM46.0907 1.30639C46.2382 1.40504 46.4546 1.60233 46.5628 1.73685C46.7595 1.97002 46.7693 2.1135 46.7988 4.93839L46.8283 7.88883H24.0002H1.18195V5.07291C1.18195 2.14938 1.21146 1.92518 1.60488 1.53059C2.08681 1.05529 0.759026 1.0822 24.1182 1.10013L45.8251 1.11806L46.0907 1.30639ZM46.8185 21.9146C46.8185 30.8556 46.789 34.945 46.7103 35.1243C46.5628 35.4741 46.1497 35.8507 45.7956 35.9494C45.6284 35.9942 44.9006 36.066 44.1924 36.0929L42.8843 36.1556V34.9629C42.8843 33.555 42.7663 33.2231 42.0975 32.712C41.5368 32.2725 40.9369 32.147 40.1894 32.3264L39.6484 32.4609L39.1763 32.0304C38.5862 31.4923 37.9764 31.304 37.2879 31.4475C37.042 31.4923 36.7667 31.5641 36.688 31.6C36.5896 31.6358 36.4913 31.5641 36.3732 31.3937C36.2847 31.2502 36.029 31.017 35.7929 30.8736C35.4487 30.6673 35.2717 30.6225 34.7799 30.6225C34.4455 30.6225 34.0816 30.6583 33.9537 30.6942L33.7373 30.7659V26.8918C33.7373 23.1432 33.7275 22.9997 33.5308 22.6231C33.098 21.798 31.9965 21.3138 31.0227 21.5111C30.3146 21.6546 29.7835 22.0312 29.4687 22.6052L29.213 23.0805V28.6585V34.2365L28.6131 33.6715C27.7377 32.8375 26.7542 32.4071 25.328 32.2456C24.7772 32.1829 24.2953 32.3622 24.0297 32.7209C23.7445 33.0976 23.7445 33.4025 24.0101 33.9585C24.2363 34.4428 24.8854 36.0301 24.8854 36.1108C24.8854 36.2095 2.46056 36.048 2.17533 35.9494C1.82126 35.8238 1.47701 35.5189 1.31965 35.1781C1.20162 34.936 1.18195 32.703 1.18195 21.9236V8.96498H24.0002H46.8185V21.9146ZM31.9079 22.6321C32.5866 22.8921 32.5571 22.7038 32.5571 27.5375C32.5571 33.1514 32.6358 35.6624 32.8226 35.8328C33.039 36.0301 33.5013 35.9853 33.6783 35.7611C33.8062 35.5996 33.8357 35.2499 33.8357 33.824C33.8357 32.1022 33.8357 32.0932 34.0816 31.878C34.3373 31.6358 34.7897 31.582 35.1241 31.7524C35.5175 31.9407 35.5864 32.2905 35.5274 33.9495C35.488 35.3127 35.4979 35.5279 35.6454 35.7342C35.7831 35.9314 35.8815 35.9673 36.1765 35.9404C36.7076 35.9045 36.7863 35.6983 36.7863 34.1917V32.9272L37.0912 32.694C37.4945 32.3802 37.8781 32.3891 38.2813 32.7209L38.6059 32.981L38.6551 34.667C38.7042 36.344 38.7042 36.3619 38.9403 36.4606C39.2354 36.5951 39.5501 36.4964 39.7075 36.2184C39.7861 36.0839 39.8353 35.5996 39.8353 34.927C39.8353 33.7164 39.914 33.5281 40.4648 33.3577C40.868 33.2411 41.2024 33.3397 41.4975 33.6805C41.7139 33.9316 41.7139 33.9495 41.6844 37.4739L41.6549 41.0252L41.3893 41.4736C41.0549 42.0565 40.3959 42.6125 39.7763 42.8278C39.3239 42.9892 38.9796 42.9982 34.475 42.9982C29.7638 42.9982 29.6458 42.9982 29.2032 42.8098C28.5934 42.5498 27.9934 42.0386 27.7377 41.5723C27.6295 41.357 27.1869 39.9311 26.7542 38.3976C26.0558 35.9135 25.5149 34.3083 25.1215 33.6177C25.0526 33.4832 25.0133 33.3577 25.0428 33.3397C25.1411 33.25 26.0952 33.4473 26.6361 33.6715C27.3541 33.9675 27.9049 34.4607 28.6327 35.4382L29.213 36.2184V37.3035C29.213 38.2631 29.2327 38.3976 29.4097 38.559C29.6556 38.7832 29.813 38.7832 30.1376 38.5501L30.3933 38.3707V30.8377C30.3933 22.7128 30.3834 22.9459 30.9047 22.7128C31.4162 22.4796 31.4948 22.4796 31.9079 22.6321Z" fill="#4086F4"/>
<path d="M4.52669 2.40935C4.00541 2.50799 3.60216 2.73219 3.21857 3.14471C2.62845 3.77247 2.52026 4.61545 2.95302 5.37772C3.76936 6.82155 6.09053 6.83052 6.90687 5.38669C7.78223 3.86214 6.35609 2.07753 4.52669 2.40935ZM5.58892 3.58414C5.68727 3.58414 6.00201 4.21189 6.00201 4.41815C6.00201 5.27907 4.92011 5.70056 4.21195 5.11765C3.38578 4.44506 4.18245 3.23439 5.26435 3.5124C5.42172 3.54827 5.56925 3.58414 5.58892 3.58414Z" fill="#4086F4"/>
<path d="M10.4272 2.43615C8.76499 2.71416 8.08634 4.69606 9.2666 5.84395C10.0731 6.62416 11.5779 6.669 12.4238 5.93363C13.2991 5.17136 13.3877 3.96069 12.6205 3.14462C12.0402 2.52583 11.3025 2.2837 10.4272 2.43615ZM11.6566 3.77237C11.9025 3.9876 11.9517 4.10418 11.9517 4.44496C11.9517 4.79471 11.9025 4.89336 11.6271 5.11755C10.919 5.70047 9.83705 5.27898 9.83705 4.41806C9.83705 4.03244 10.1715 3.60198 10.5452 3.5123C10.9976 3.39572 11.3124 3.46746 11.6566 3.77237Z" fill="#4086F4"/>
<path d="M16.4566 2.42778C14.2633 2.80443 13.9584 5.54861 16.0337 6.34675C16.5746 6.55301 17.5877 6.46333 18.0893 6.15842C18.7188 5.7728 19.0236 5.28854 19.063 4.56214C19.0925 4.0689 19.063 3.87161 18.886 3.54876C18.4434 2.70578 17.4598 2.25739 16.4566 2.42778ZM17.686 3.80883C18.0204 4.16755 17.9909 4.77737 17.6172 5.11815C17.3811 5.32441 17.2434 5.37821 16.8894 5.37821C16.1419 5.37821 15.6501 4.82221 15.8468 4.17652C16.0828 3.42321 17.1156 3.21695 17.686 3.80883Z" fill="#4086F4"/>
<path d="M25.4755 3.82647C25.0821 3.95202 24.9542 4.44526 25.2591 4.68739C25.4263 4.83088 26.2623 4.83984 35.2913 4.83984H45.1464L45.3038 4.61565C45.5103 4.32867 45.4218 4.00583 45.0973 3.87131C44.9104 3.7906 42.3827 3.7637 35.2323 3.77266C29.9506 3.77266 25.5542 3.79957 25.4755 3.82647Z" fill="#4086F4"/>
<path d="M11.5485 14.4978C10.7518 15.3766 10.083 16.112 10.0732 16.1299C10.0535 16.1479 9.7978 15.9685 9.4929 15.7443C9.188 15.5201 8.87327 15.3318 8.80442 15.3318C8.72574 15.3318 8.5487 15.4215 8.40117 15.538C7.99791 15.8519 8.12577 16.112 9.01097 16.7577C9.73879 17.2957 10.0437 17.3944 10.4666 17.2509C10.742 17.1523 13.8697 13.6638 13.8697 13.4485C13.8697 13.0898 13.6926 12.9104 13.3386 12.9104C13.0238 12.9104 12.9058 13.0181 11.5485 14.4978Z" fill="#4086F4"/>
<path d="M6.28678 13.4044C5.82451 13.6376 5.79501 13.8349 5.82451 16.8033L5.85402 19.5654L6.12941 19.7806L6.40481 19.9958H9.55215H12.6995L12.9356 19.7717C13.1716 19.5654 13.1814 19.5116 13.1814 18.3996C13.1814 17.3952 13.1618 17.2248 13.0044 17.0992C12.7585 16.893 12.4339 16.9109 12.1979 17.1261C12.0307 17.2786 12.0012 17.4221 12.0012 18.1126V18.9197H9.49314H6.9851L7.00477 16.6508L7.03428 14.3909L8.41124 14.364C9.67018 14.3461 9.79804 14.3281 9.96524 14.1577C10.1915 13.8977 10.1816 13.7542 9.88656 13.4941C9.65051 13.2789 9.621 13.2699 8.09651 13.2699C6.94576 13.2789 6.47365 13.3058 6.28678 13.4044Z" fill="#4086F4"/>
<path d="M19.1806 13.6912C18.6986 13.8526 18.5413 14.2921 18.8658 14.5521C19.033 14.6956 20.0067 14.7046 30.8159 14.7046C41.3792 14.7046 42.589 14.6867 42.7267 14.5611C42.8939 14.4176 42.9332 14.1037 42.8053 13.9244C42.766 13.8706 42.6086 13.7719 42.4611 13.7271C42.166 13.6284 19.4756 13.5926 19.1806 13.6912Z" fill="#4086F4"/>
<path d="M18.886 18.2914C18.6402 18.5156 18.6303 18.8475 18.8664 19.0358C19.0336 19.1793 20.0073 19.1882 30.8066 19.1882C42.0682 19.1882 42.5698 19.1793 42.7174 19.0268C42.9436 18.8026 42.9239 18.5067 42.6879 18.2914C42.4912 18.1121 42.3633 18.1121 30.787 18.1121C19.2106 18.1121 19.0828 18.1121 18.886 18.2914Z" fill="#4086F4"/>
<path d="M11.647 25.7981C10.8995 26.6231 10.2307 27.3585 10.1717 27.4302C10.0733 27.5468 9.99466 27.5199 9.63075 27.2509C8.89309 26.7039 8.60786 26.659 8.27345 27.0267C8.0374 27.2868 8.23411 27.6006 9.01111 28.1566C9.88647 28.7934 10.2405 28.8561 10.7126 28.4436C10.8799 28.3091 11.647 27.493 12.4339 26.6321C13.919 25.0089 14.0665 24.7578 13.7125 24.4439C13.6338 24.3632 13.4371 24.3005 13.2895 24.3005C13.0535 24.3005 12.8174 24.5157 11.647 25.7981Z" fill="#4086F4"/>
<path d="M6.53216 24.7211C6.41414 24.7391 6.21743 24.8556 6.08957 24.9812L5.85352 25.2144V28.0662V30.9179L6.08957 31.1511L6.32562 31.3843H9.51231H12.699L12.9351 31.1601C13.1711 30.9538 13.1809 30.9 13.1809 29.779C13.1809 28.676 13.1711 28.6042 12.9646 28.4787C12.6597 28.2814 12.4334 28.2993 12.1974 28.5325C12.0302 28.6939 12.0007 28.8464 12.0007 29.519V30.3081H9.49264H6.98459L7.00427 28.0393L7.03377 25.7793L8.43041 25.7524C9.80737 25.7345 9.83688 25.7255 9.99425 25.5013C10.2008 25.2233 10.0631 24.8736 9.67951 24.748C9.44346 24.6584 6.96492 24.6404 6.53216 24.7211Z" fill="#4086F4"/>
<path d="M18.856 25.2685C18.6495 25.4748 18.6396 25.7349 18.8265 25.968C18.9642 26.1295 19.1412 26.1384 22.7902 26.1653C24.8852 26.1743 26.7047 26.1653 26.8227 26.1384C27.3243 26.0308 27.5112 25.5376 27.167 25.2596C26.9998 25.1251 26.567 25.1071 22.9967 25.1071C19.2593 25.1071 19.0035 25.1161 18.856 25.2685Z" fill="#4086F4"/>
<path d="M37.0218 25.3312C36.835 25.5913 36.9136 25.8693 37.2284 26.0576C37.4152 26.1742 37.8578 26.1831 40.0315 26.1652C42.451 26.1383 42.6182 26.1293 42.7461 25.9679C42.9329 25.7258 42.9231 25.4298 42.7067 25.2595C42.5494 25.1249 42.2051 25.107 39.8544 25.107H37.1792L37.0218 25.3312Z" fill="#4086F4"/>
<path d="M19.0829 29.5645C18.6895 29.6901 18.5617 30.1833 18.8666 30.4254C19.0141 30.551 19.2796 30.5779 20.3222 30.5779C21.7287 30.5779 21.8369 30.542 21.8369 30.0757C21.8369 29.5914 21.5811 29.5017 20.3124 29.5107C19.7222 29.5107 19.1616 29.5376 19.0829 29.5645Z" fill="#4086F4"/>
</svg>
