<svg width="47" height="45" viewBox="0 0 47 45" fill="none" xmlns="http://www.w3.org/2000/svg">
<path d="M25.6963 0.969151C25.5085 1.02957 25.2173 1.17631 25.0577 1.28852C24.9074 1.40074 22.0432 5.18147 18.6999 9.69591L12.6239 17.8961L10.9053 17.922L9.18676 17.9393L9.23371 17.6631C9.26189 17.5077 9.44032 15.9626 9.61875 14.2276C9.79718 12.4926 9.96622 10.913 9.99439 10.7145C10.0507 10.3606 10.0789 10.3347 10.7175 10.0239C11.3561 9.71317 12.2576 9.00536 12.6333 8.50471L12.8211 8.25439L15.5351 8.51335C17.3758 8.67735 18.3431 8.73777 18.5121 8.68599C19.038 8.52198 19.0756 7.77964 18.5685 7.58111C18.4464 7.52932 17.1128 7.38258 15.5915 7.24447C12.53 6.97689 12.2952 6.98552 11.8444 7.443C11.6942 7.58974 11.3561 7.92638 11.0838 8.19397C10.802 8.47882 10.3982 8.7723 10.0695 8.91904C9.23371 9.29021 8.94259 9.52327 8.79233 9.92897C8.69842 10.1534 8.48243 11.8452 8.23826 14.1154L7.83444 17.9393H7.39306H6.94229L6.98924 17.6113C7.01742 17.4386 7.31793 14.7369 7.64662 11.6122C7.9847 8.47882 8.304 5.85475 8.35095 5.7598C8.49182 5.51811 8.75477 5.42316 9.26189 5.42316C9.50606 5.42316 12.0135 5.63896 14.8214 5.89791C19.3479 6.31224 19.9677 6.34676 20.1931 6.24318C20.6439 6.02739 20.6251 5.34547 20.1649 5.16421C20.0429 5.12105 18.39 4.94841 16.4742 4.77578C14.5679 4.60314 12.1262 4.38734 11.0462 4.28376C9.95683 4.18881 8.91442 4.13702 8.68903 4.16292C7.83444 4.28376 7.10194 4.95704 6.9329 5.79433C6.87655 6.04465 6.6136 8.32345 6.34126 10.8612L5.85292 15.4792L4.66964 15.531C3.65541 15.5655 3.42063 15.6087 3.0356 15.79C2.23735 16.1698 1.78658 16.8862 1.77719 17.8098C1.7678 18.2241 1.74902 18.25 1.32642 18.5004C1.09164 18.6385 0.753561 18.9233 0.584521 19.1305C-0.0446817 19.8901 -0.0165084 19.2254 0.0116648 31.6725L0.0398381 42.9284L0.265224 43.3772C0.537566 43.9469 1.30764 44.6116 1.91806 44.836C2.37822 45 2.86656 45 22.2028 45H42.018L42.5063 44.7928C43.0886 44.5511 43.7835 43.9038 44.0653 43.3341C44.2625 42.9456 44.2719 42.8075 44.3 39.6224L44.3282 36.325H44.6757C45.4833 36.325 46.197 35.9539 46.4412 35.4014C46.5445 35.177 46.5727 34.3656 46.5727 31.4912C46.5727 28.0471 46.5633 27.84 46.3849 27.5206C46.1031 27.0113 45.7087 26.7955 44.9574 26.761L44.3188 26.7265V23.6017C44.3188 20.9777 44.2906 20.3993 44.1686 20.0109C43.9995 19.493 43.6051 18.906 43.2388 18.6471C43.0229 18.4917 43.0041 18.414 43.0041 17.8357C43.0041 17.0675 42.7223 16.4546 42.1777 16.0403C41.7832 15.7468 41.0883 15.5224 40.5436 15.5224H40.1774L41.2761 14.0463C41.8865 13.2263 42.4312 12.389 42.5063 12.1646C42.7317 11.4741 42.4876 10.654 41.9053 10.162C41.7644 10.0412 40.5248 9.23842 39.1537 8.38387C37.7826 7.52932 34.6366 5.55264 32.1574 3.99891C29.6781 2.44519 27.5276 1.11589 27.3773 1.04683C26.9923 0.865566 26.1283 0.822407 25.6963 0.969151ZM26.8608 2.23803C27.4336 2.51424 40.7408 10.913 40.9662 11.1288C41.3794 11.5345 41.3137 11.7416 40.4027 12.9846C39.9426 13.5975 38.9471 14.9613 38.1677 16.0144L36.759 17.9307L36.2143 17.9393H35.679L36.7778 16.4632C37.3788 15.6432 37.9235 14.8318 37.9986 14.6419C38.1395 14.2535 38.0831 13.96 37.6887 13.1055C37.4727 12.6307 37.4258 12.4063 37.407 11.6122C37.3882 10.8439 37.3412 10.6281 37.1816 10.3951C37.0501 10.1879 35.8856 9.41106 33.181 7.71922C31.0868 6.40719 29.2743 5.29369 29.1428 5.25053C28.7296 5.10379 28.2976 5.15557 27.5369 5.44043C26.8984 5.68212 26.6824 5.71664 25.7996 5.73391C24.6163 5.7598 24.2782 5.87202 23.8744 6.39856C23.7148 6.59709 21.7614 9.22979 19.5263 12.2423C17.2913 15.2548 15.4131 17.7753 15.3567 17.8357C15.2816 17.9048 15.0656 17.9393 14.7557 17.922L14.2861 17.8961L20.0053 10.1707C23.1513 5.92381 25.8184 2.37613 25.9217 2.28981C26.1471 2.12581 26.5791 2.09991 26.8608 2.23803ZM32.4391 8.7723L36.0077 11.0079L36.0641 11.9488C36.111 12.6825 36.1768 13.0192 36.374 13.4939C36.5148 13.8219 36.6369 14.1586 36.6463 14.2276C36.6557 14.3053 36.0734 15.1685 35.3503 16.1525L34.0356 17.9307L32.8617 17.9393H31.6784L31.5751 17.361C31.4249 16.5668 30.8144 15.4792 30.1758 14.8405C29.4997 14.1672 28.7766 13.7356 27.8093 13.4248C25.8466 12.8034 23.4988 13.3126 22.0526 14.6765C21.2449 15.4361 20.6345 16.515 20.4842 17.4473L20.4185 17.8961L18.6999 17.922C17.3194 17.9393 16.9908 17.922 17.0471 17.8357C17.0941 17.7753 18.9159 15.3066 21.1041 12.3459L25.0859 6.97689H25.9686C26.6448 6.97689 27.011 6.92509 27.5745 6.76109C27.9783 6.64025 28.3728 6.51077 28.4385 6.46761C28.523 6.41582 28.6451 6.41582 28.7202 6.45898C28.8047 6.50214 30.4764 7.53796 32.4391 8.7723ZM27.0862 14.5297C27.8469 14.7196 28.4761 15.0476 29.0489 15.5742C29.6406 16.118 29.9974 16.6963 30.1758 17.4041L30.3073 17.9393H26.0438H21.7708L21.8366 17.6113C22.2685 15.4274 24.7384 13.9687 27.0862 14.5297ZM5.68388 17.0847C5.65571 17.2315 5.62754 17.4904 5.62754 17.6458V17.9393H4.40669H3.18585V17.6285C3.18585 17.4041 3.26098 17.2574 3.45819 17.0675C3.73054 16.8258 3.75871 16.8171 4.73538 16.8171H5.74962L5.68388 17.0847ZM41.2479 16.9984C41.5203 17.1883 41.7738 17.8184 41.633 17.922C41.586 17.9565 40.8441 17.9738 39.9801 17.9565L38.4118 17.9307L38.8063 17.3782L39.2007 16.8171H40.1022C40.8723 16.8171 41.0413 16.843 41.2479 16.9984ZM42.2246 19.5448C42.8162 19.9764 42.9102 20.244 42.9102 21.4524V22.5141H22.1559H1.40155V21.4352C1.40155 20.6669 1.43911 20.2785 1.53302 20.1145C1.70206 19.8124 2.13405 19.4412 2.43457 19.329C2.58482 19.2772 9.39336 19.2513 22.2685 19.2599L41.8584 19.2772L42.2246 19.5448ZM42.9102 25.2763V26.7437H39.3697C36.5336 26.7437 35.6978 26.7696 35.2189 26.8732C33.5754 27.2357 32.1668 28.3924 31.5469 29.8943C31.284 30.5417 31.1901 31.8624 31.3591 32.5357C31.7817 34.2102 33.1716 35.5741 35.0216 36.1179C35.463 36.2473 36.0453 36.2732 39.2289 36.3078L42.9102 36.3423V37.8011V39.2598H26.025C9.21493 39.2598 9.13041 39.2598 8.96137 39.4325C8.74538 39.6569 8.74538 40.0712 8.96137 40.2957C9.13041 40.4683 9.21493 40.4683 26.025 40.4683H42.9102V41.5645C42.9102 42.5486 42.882 42.7039 42.6942 43.0147C42.5721 43.2046 42.3185 43.4376 42.1119 43.5499L41.7363 43.7484H22.1746C0.377918 43.7484 2.23735 43.8002 1.70206 43.1614C1.45789 42.8679 1.4485 42.8075 1.42033 41.6595L1.38276 40.4683H3.36428C5.22372 40.4683 5.35519 40.4597 5.53363 40.2957C5.63693 40.2007 5.72145 40.0108 5.72145 39.8641C5.72145 39.7173 5.63693 39.5274 5.53363 39.4325C5.35519 39.2685 5.22372 39.2598 3.37367 39.2598H1.40155V31.5344V23.8089H22.1559H42.9102V25.2763ZM45.1452 31.5085L45.164 35.0303H40.5906C37.9047 35.0303 35.8387 34.9871 35.6039 34.9439C34.1295 34.6246 32.9462 33.4765 32.6645 32.0868C32.2888 30.1964 33.8102 28.2975 35.895 28.0471C36.2143 28.004 38.4212 27.9781 40.7972 27.9867L45.1171 27.9953L45.1452 31.5085Z" fill="#4086F4"/>
<path d="M35.7731 29.0657C34.5898 29.4023 33.7071 30.6021 33.8292 31.707C33.9794 33.0795 35.1063 34.029 36.562 34.029C38.9849 34.0376 40.2151 31.5085 38.6374 29.7821C38.5059 29.6354 38.1397 29.3937 37.8204 29.2556C37.3414 29.0312 37.1348 28.988 36.6277 28.9966C36.2896 28.9966 35.9046 29.0312 35.7731 29.0657ZM37.1254 30.3173C38.1115 30.6971 38.2618 31.966 37.3884 32.5616C37.0315 32.8119 36.2708 32.8378 35.8858 32.622C34.9373 32.0696 34.9937 30.7748 35.9985 30.3605C36.4587 30.1706 36.7122 30.1619 37.1254 30.3173Z" fill="#4086F4"/>
</svg>
