<svg width="42" height="45" viewBox="0 0 42 45" fill="none" xmlns="http://www.w3.org/2000/svg">
<path d="M18.4403 0.976261C12.377 1.53702 6.79244 4.65137 3.32905 9.4135C1.6959 11.6652 0.466352 14.7795 0.0909168 17.6092C-0.0498716 18.6876 -0.0217139 20.7235 0.137846 21.5949C1.15152 26.9005 6.86753 34.3888 16.0469 42.4291C17.9335 44.0769 18.3559 44.4047 18.9472 44.6808C19.6136 44.9827 19.698 45 20.5522 45C21.4063 45 21.4907 44.9827 22.1571 44.6808C22.7485 44.4047 23.1708 44.0769 25.0574 42.4291C31.0174 37.2098 35.8136 31.8869 38.4604 27.5303C39.7651 25.3735 40.5441 23.5532 40.9289 21.7415C41.1354 20.7667 41.173 18.8256 41.0134 17.6092C40.6661 14.9607 39.5961 12.1224 38.1319 9.93112C36.9962 8.24022 35.1284 6.29914 33.4484 5.04822C29.2623 1.95974 23.8184 0.475891 18.4403 0.976261ZM23.5556 2.38247C28.5208 3.14165 32.9509 5.60898 35.9169 9.27546C37.8973 11.7169 39.0799 14.3654 39.568 17.4366C39.7932 18.9119 39.7182 21.0686 39.3803 22.2246C37.9161 27.3318 32.6787 33.9143 23.9405 41.6182C22.7766 42.6362 21.838 43.3954 21.594 43.5075C21.0308 43.7577 20.402 43.8008 19.8201 43.6197C19.2569 43.4558 17.9992 42.4205 15.2116 39.8583C9.2797 34.4146 5.39395 29.8251 3.18826 25.6755C1.81792 23.1132 1.40494 21.6811 1.40494 19.5503C1.40494 11.6824 7.45884 4.65137 15.9155 2.69304C16.6289 2.52913 18.1306 2.28757 18.9096 2.21855C19.698 2.14954 22.7015 2.25306 23.5556 2.38247Z" fill="#FFB60A"/>
<path d="M18.9568 5.71217C15.4558 6.08313 12.443 7.36856 9.90876 9.5857C7.62799 11.5872 6.11687 14.0804 5.42231 17.0308C5.24398 17.79 5.21582 18.1696 5.21582 19.8087C5.21582 21.4479 5.24398 21.8275 5.42231 22.578C5.88222 24.5105 6.79265 26.4515 7.94711 27.9613C8.85755 29.1432 10.6033 30.7133 11.861 31.4897C15.3244 33.612 19.0506 34.3712 23.1335 33.7759C23.6497 33.6983 24.2035 33.5861 24.3724 33.5257C24.8605 33.3359 24.9262 32.732 24.4851 32.4301C24.2504 32.2662 24.2316 32.2662 23.171 32.456C21.7725 32.7148 19.4542 32.732 18.112 32.4991C15.2306 31.9901 12.7151 30.7737 10.6503 28.8671C9.32684 27.6593 7.83448 25.6492 8.12545 25.4767C8.18176 25.4422 9.2893 24.6054 10.5752 23.6219C12.1051 22.4572 12.9498 21.7584 12.9873 21.6204C13.1187 21.1546 12.5368 20.6714 12.0769 20.8699C11.9643 20.913 10.8755 21.7153 9.66473 22.6384L7.45905 24.3207L7.32765 24.0532C7.12116 23.6046 6.77388 22.2502 6.65186 21.4306C6.48292 20.266 6.59555 18.1265 6.87712 17.0049C8.06913 12.3895 11.6827 8.82653 16.5446 7.48071C17.9806 7.08387 18.8911 6.96309 20.5524 6.96309C22.3732 6.96309 23.3681 7.10975 24.9731 7.60149C26.8691 8.1795 28.5585 9.08534 29.957 10.2672C30.8018 10.9919 31.1209 11.0954 31.4775 10.7676C31.9187 10.3621 31.8248 10.1206 30.9425 9.35278C27.8546 6.66977 23.2273 5.26356 18.9568 5.71217Z" fill="#FFB60A"/>
<path d="M23.931 11.6306C23.3209 11.8376 22.5044 12.6054 22.2885 13.2007C21.913 14.2446 22.2979 15.4178 23.2271 16.0735C24.6537 17.0742 26.6341 16.6429 27.4789 15.1504C27.8355 14.512 27.8355 13.6148 27.4695 12.9333C27.1504 12.338 26.5215 11.8031 25.9302 11.622C25.3858 11.4494 24.4848 11.458 23.931 11.6306ZM25.6205 12.9074C26.4746 13.3129 26.5966 14.4085 25.8551 15.0038C25.245 15.5041 24.2783 15.4006 23.7996 14.7881C23.5274 14.443 23.4993 13.7528 23.7339 13.3991C24.1281 12.8297 24.9822 12.6054 25.6205 12.9074Z" fill="#FFB60A"/>
<path d="M32.3879 12.0531C32.1439 12.3377 32.1439 12.4844 32.3785 12.864C32.8666 13.6491 33.5048 14.8655 33.7395 15.4521C34.2651 16.8065 34.4528 17.7814 34.5091 19.5241C34.5373 20.4213 34.5373 21.1459 34.4997 21.1459C34.4622 21.1459 33.5799 20.5162 32.5381 19.7484C31.4963 18.9719 30.492 18.2731 30.3136 18.1955C29.9007 17.9971 29.3375 18.0057 28.8588 18.2041C28.6523 18.299 27.6856 18.9719 26.7188 19.7225C25.4987 20.6456 24.9168 21.0424 24.8417 20.9907C24.776 20.9475 23.4526 19.9813 21.9039 18.8339C20.3458 17.6951 18.9755 16.7375 18.8629 16.703C18.4311 16.5736 17.7459 16.634 17.3987 16.8238C16.7229 17.1948 14.001 19.3343 13.9446 19.5499C13.8132 20.0158 14.3952 20.4989 14.8551 20.3091C14.9677 20.2574 15.7186 19.7139 16.5164 19.1013C17.3142 18.4888 18.0369 17.9626 18.1214 17.9367C18.2058 17.9022 18.3748 17.9453 18.5062 18.023C19.0506 18.3594 31.6277 27.6421 31.6277 27.7111C31.6277 27.7456 31.1771 28.2029 30.6234 28.7205C29.5065 29.7643 28.6148 30.4028 27.404 31.0325C26.9629 31.2568 26.5311 31.4984 26.4467 31.5674C26.212 31.7486 26.2308 32.2317 26.4654 32.4474C26.7282 32.6889 27.038 32.663 27.7137 32.3525C31.0739 30.7996 33.946 27.6852 35.1849 24.2689C35.7762 22.6384 35.8889 21.9051 35.8889 19.8088C35.8889 17.721 35.7762 16.9877 35.1849 15.3486C34.8376 14.3651 33.899 12.5879 33.5048 12.148C33.1294 11.7425 32.6883 11.6993 32.3879 12.0531ZM31.9656 20.9734C33.824 22.3365 34.1994 22.647 34.1806 22.811C34.068 23.5184 32.998 25.8822 32.5475 26.4343C32.4348 26.5723 32.1439 26.3739 29.253 24.243C27.5073 22.9576 26.0994 21.8879 26.1275 21.862C26.5405 21.4738 29.4595 19.3343 29.5722 19.3343C29.6566 19.3343 30.7266 20.0762 31.9656 20.9734Z" fill="#FFB60A"/>
</svg>
