<svg width="17" height="14" viewBox="0 0 17 14" fill="none" xmlns="http://www.w3.org/2000/svg">
<path d="M16.3168 2.15967C15.7363 2.4143 15.1178 2.58308 14.4729 2.66503C15.1363 2.26893 15.6426 1.6465 15.8807 0.896252C15.2622 1.26503 14.5792 1.52552 13.8514 1.67089C13.2641 1.04552 12.427 0.658203 11.5139 0.658203C9.74215 0.658203 8.31581 2.09625 8.31581 3.85918C8.31581 4.11284 8.33728 4.35674 8.38996 4.58893C5.72947 4.45918 3.37532 3.18406 1.79386 1.24162C1.51776 1.72064 1.35581 2.26893 1.35581 2.85918C1.35581 3.96747 1.92654 4.94991 2.77728 5.51869C2.26313 5.50893 1.75874 5.35967 1.33142 5.12454C1.33142 5.1343 1.33142 5.14698 1.33142 5.15967C1.33142 6.71479 2.44069 8.0065 3.89532 8.30406C3.63484 8.37528 3.35093 8.40942 3.0563 8.40942C2.85142 8.40942 2.64459 8.39772 2.45045 8.35479C2.86508 9.62211 4.04167 10.5538 5.44069 10.5841C4.35191 11.4358 2.96947 11.9489 1.47288 11.9489C1.21045 11.9489 0.958739 11.9372 0.707031 11.905C2.12459 12.8192 3.80459 13.3411 5.6163 13.3411C11.5051 13.3411 14.7246 8.46308 14.7246 4.23479C14.7246 4.09333 14.7197 3.95674 14.7129 3.82113C15.348 3.3704 15.8817 2.80747 16.3168 2.15967Z" fill="#444444"/>
</svg>
